<mxfile host="app.diagrams.net" modified="2022-12-26T23:25:08.266Z" agent="5.0 (Windows NT 10.0; Win64; x64) AppleWebKit/537.36 (KHTML, like Gecko) Chrome/108.0.0.0 Safari/537.36" etag="YAcos3EMB8qobMYVUFoQ" version="20.6.2" type="github" pages="7">
  <diagram id="ySvaeIhlYubQLGQfKe-j" name="Figure 1 IR Lifecycle">
    <mxGraphModel dx="1033" dy="1361" grid="1" gridSize="10" guides="1" tooltips="1" connect="1" arrows="1" fold="1" page="1" pageScale="1" pageWidth="827" pageHeight="1169" math="0" shadow="0">
      <root>
        <mxCell id="0" />
        <mxCell id="1" parent="0" />
        <mxCell id="JgurNCQ8JFH9-shRPi3R-3" value="" style="edgeStyle=orthogonalEdgeStyle;rounded=0;orthogonalLoop=1;jettySize=auto;html=1;strokeWidth=2;strokeColor=#999999;endArrow=block;endFill=1;" parent="1" source="JgurNCQ8JFH9-shRPi3R-1" target="JgurNCQ8JFH9-shRPi3R-2" edge="1">
          <mxGeometry relative="1" as="geometry" />
        </mxCell>
        <mxCell id="JgurNCQ8JFH9-shRPi3R-1" value="Preparation" style="rounded=1;whiteSpace=wrap;html=1;strokeColor=none;fillColor=#1AAE9F;labelBackgroundColor=none;labelBorderColor=none;fontColor=#FFFFFF;" parent="1" vertex="1">
          <mxGeometry x="114" y="550" width="120" height="60" as="geometry" />
        </mxCell>
        <mxCell id="JgurNCQ8JFH9-shRPi3R-2" value="Identification" style="whiteSpace=wrap;html=1;rounded=1;strokeColor=none;fillColor=#F7C325;" parent="1" vertex="1">
          <mxGeometry x="274" y="550" width="120" height="60" as="geometry" />
        </mxCell>
        <mxCell id="JgurNCQ8JFH9-shRPi3R-7" value="" style="edgeStyle=orthogonalEdgeStyle;rounded=1;orthogonalLoop=1;jettySize=auto;html=1;exitX=1;exitY=0.5;exitDx=0;exitDy=0;strokeColor=#999999;strokeWidth=2;endArrow=block;endFill=1;" parent="1" source="JgurNCQ8JFH9-shRPi3R-15" target="JgurNCQ8JFH9-shRPi3R-6" edge="1">
          <mxGeometry relative="1" as="geometry" />
        </mxCell>
        <mxCell id="JgurNCQ8JFH9-shRPi3R-9" value="" style="edgeStyle=orthogonalEdgeStyle;rounded=0;orthogonalLoop=1;jettySize=auto;html=1;strokeColor=#999999;endFill=1;strokeWidth=2;endArrow=block;" parent="1" source="JgurNCQ8JFH9-shRPi3R-4" target="JgurNCQ8JFH9-shRPi3R-8" edge="1">
          <mxGeometry relative="1" as="geometry" />
        </mxCell>
        <mxCell id="JgurNCQ8JFH9-shRPi3R-4" value="Eradication" style="whiteSpace=wrap;html=1;rounded=1;fontColor=#FFFFFF;strokeColor=none;fillColor=#D3455B;" parent="1" vertex="1">
          <mxGeometry x="434" y="550" width="120" height="60" as="geometry" />
        </mxCell>
        <mxCell id="JgurNCQ8JFH9-shRPi3R-6" value="Post Incident Activities" style="whiteSpace=wrap;html=1;rounded=1;fontColor=#FFFFFF;strokeColor=none;fillColor=#6558F5;" parent="1" vertex="1">
          <mxGeometry x="594" y="550" width="120" height="60" as="geometry" />
        </mxCell>
        <mxCell id="JgurNCQ8JFH9-shRPi3R-8" value="Recovery" style="whiteSpace=wrap;html=1;rounded=1;fontColor=#FFFFFF;strokeColor=none;fillColor=#730FC3;" parent="1" vertex="1">
          <mxGeometry x="434" y="650" width="120" height="60" as="geometry" />
        </mxCell>
        <mxCell id="JgurNCQ8JFH9-shRPi3R-12" value="" style="edgeStyle=orthogonalEdgeStyle;rounded=0;orthogonalLoop=1;jettySize=auto;html=1;endArrow=block;endFill=1;strokeWidth=2;strokeColor=#999999;" parent="1" source="JgurNCQ8JFH9-shRPi3R-10" target="JgurNCQ8JFH9-shRPi3R-4" edge="1">
          <mxGeometry relative="1" as="geometry" />
        </mxCell>
        <mxCell id="JgurNCQ8JFH9-shRPi3R-10" value="Containment" style="whiteSpace=wrap;html=1;rounded=1;strokeColor=none;fillColor=#E8833A;fontColor=#FFFFFF;" parent="1" vertex="1">
          <mxGeometry x="434" y="450" width="120" height="60" as="geometry" />
        </mxCell>
        <mxCell id="JgurNCQ8JFH9-shRPi3R-13" value="" style="endArrow=block;html=1;entryX=0;entryY=0.5;entryDx=0;entryDy=0;exitX=1;exitY=0.5;exitDx=0;exitDy=0;edgeStyle=orthogonalEdgeStyle;strokeWidth=2;strokeColor=#999999;endFill=1;" parent="1" source="JgurNCQ8JFH9-shRPi3R-6" target="JgurNCQ8JFH9-shRPi3R-1" edge="1">
          <mxGeometry width="50" height="50" relative="1" as="geometry">
            <mxPoint x="734" y="660" as="sourcePoint" />
            <mxPoint x="434" y="1280" as="targetPoint" />
            <Array as="points">
              <mxPoint x="734" y="580" />
              <mxPoint x="734" y="730" />
              <mxPoint x="94" y="730" />
              <mxPoint x="94" y="580" />
            </Array>
          </mxGeometry>
        </mxCell>
        <mxCell id="JgurNCQ8JFH9-shRPi3R-16" value="" style="edgeStyle=orthogonalEdgeStyle;orthogonalLoop=1;jettySize=auto;html=1;startArrow=block;startFill=1;endArrow=block;endFill=1;strokeWidth=2;strokeColor=#999999;" parent="1" source="JgurNCQ8JFH9-shRPi3R-15" target="JgurNCQ8JFH9-shRPi3R-2" edge="1">
          <mxGeometry relative="1" as="geometry" />
        </mxCell>
        <mxCell id="JgurNCQ8JFH9-shRPi3R-15" value="" style="rounded=1;whiteSpace=wrap;html=1;fillColor=none;arcSize=7;strokeColor=#999999;" parent="1" vertex="1">
          <mxGeometry x="424" y="440" width="140" height="280" as="geometry" />
        </mxCell>
      </root>
    </mxGraphModel>
  </diagram>
  <diagram id="xSLpF7ti3LnGePcBQsfH" name="Figure 2 Preparation">
    <mxGraphModel dx="966" dy="1292" grid="1" gridSize="10" guides="1" tooltips="1" connect="1" arrows="1" fold="1" page="1" pageScale="1" pageWidth="827" pageHeight="1169" math="0" shadow="0">
      <root>
        <mxCell id="0" />
        <mxCell id="1" parent="0" />
        <mxCell id="hDYIFtOWEY20ZJu3OGL6-1" value="" style="edgeStyle=orthogonalEdgeStyle;orthogonalLoop=1;jettySize=auto;html=1;strokeColor=#999999;strokeWidth=2;fontColor=#FFFFFF;startArrow=none;startFill=0;endArrow=block;endFill=1;sourcePerimeterSpacing=2;targetPerimeterSpacing=2;" edge="1" parent="1" source="hDYIFtOWEY20ZJu3OGL6-2" target="hDYIFtOWEY20ZJu3OGL6-4">
          <mxGeometry relative="1" as="geometry" />
        </mxCell>
        <mxCell id="hDYIFtOWEY20ZJu3OGL6-2" value="1.1 Identify Assets" style="rounded=1;whiteSpace=wrap;html=1;strokeColor=none;fillColor=#1AAE9F;labelBackgroundColor=none;labelBorderColor=none;fontColor=#FFFFFF;" vertex="1" parent="1">
          <mxGeometry x="354" y="320" width="120" height="60" as="geometry" />
        </mxCell>
        <mxCell id="hDYIFtOWEY20ZJu3OGL6-3" value="" style="edgeStyle=orthogonalEdgeStyle;orthogonalLoop=1;jettySize=auto;html=1;strokeColor=#999999;strokeWidth=2;fontColor=#FFFFFF;startArrow=none;startFill=0;endArrow=block;endFill=1;targetPerimeterSpacing=2;sourcePerimeterSpacing=2;" edge="1" parent="1" source="hDYIFtOWEY20ZJu3OGL6-4" target="hDYIFtOWEY20ZJu3OGL6-8">
          <mxGeometry relative="1" as="geometry" />
        </mxCell>
        <mxCell id="hDYIFtOWEY20ZJu3OGL6-4" value="1.2. Identify Asset Owners" style="rounded=1;whiteSpace=wrap;html=1;strokeColor=none;fillColor=#1AAE9F;labelBackgroundColor=none;labelBorderColor=none;fontColor=#FFFFFF;" vertex="1" parent="1">
          <mxGeometry x="524" y="320" width="120" height="60" as="geometry" />
        </mxCell>
        <mxCell id="hDYIFtOWEY20ZJu3OGL6-5" value="" style="edgeStyle=orthogonalEdgeStyle;orthogonalLoop=1;jettySize=auto;html=1;strokeColor=#999999;strokeWidth=2;fontColor=#FFFFFF;startArrow=none;startFill=0;endArrow=block;endFill=1;sourcePerimeterSpacing=2;targetPerimeterSpacing=2;" edge="1" parent="1" source="hDYIFtOWEY20ZJu3OGL6-6" target="hDYIFtOWEY20ZJu3OGL6-2">
          <mxGeometry relative="1" as="geometry" />
        </mxCell>
        <mxCell id="hDYIFtOWEY20ZJu3OGL6-6" value="1.0 Start Prepaparation Phase" style="triangle;whiteSpace=wrap;html=1;rounded=1;labelBackgroundColor=none;labelBorderColor=none;strokeColor=none;fontColor=#FFFFFF;fillColor=#1AAE9F;align=left;" vertex="1" parent="1">
          <mxGeometry x="198" y="290" width="90" height="120" as="geometry" />
        </mxCell>
        <mxCell id="hDYIFtOWEY20ZJu3OGL6-7" value="" style="edgeStyle=orthogonalEdgeStyle;orthogonalLoop=1;jettySize=auto;html=1;strokeColor=#999999;strokeWidth=2;fontColor=#FFFFFF;startArrow=none;startFill=0;endArrow=block;endFill=1;sourcePerimeterSpacing=2;targetPerimeterSpacing=2;" edge="1" parent="1" source="hDYIFtOWEY20ZJu3OGL6-8" target="hDYIFtOWEY20ZJu3OGL6-10">
          <mxGeometry relative="1" as="geometry" />
        </mxCell>
        <mxCell id="hDYIFtOWEY20ZJu3OGL6-8" value="1.3 Establish IR Roles" style="rounded=1;whiteSpace=wrap;html=1;strokeColor=none;fillColor=#1AAE9F;labelBackgroundColor=none;labelBorderColor=none;fontColor=#FFFFFF;" vertex="1" parent="1">
          <mxGeometry x="524" y="420" width="120" height="60" as="geometry" />
        </mxCell>
        <mxCell id="hDYIFtOWEY20ZJu3OGL6-9" value="" style="edgeStyle=orthogonalEdgeStyle;orthogonalLoop=1;jettySize=auto;html=1;strokeColor=#999999;strokeWidth=2;fontColor=#FFFFFF;startArrow=none;startFill=0;endArrow=block;endFill=1;sourcePerimeterSpacing=2;targetPerimeterSpacing=2;" edge="1" parent="1" source="hDYIFtOWEY20ZJu3OGL6-10" target="hDYIFtOWEY20ZJu3OGL6-12">
          <mxGeometry relative="1" as="geometry" />
        </mxCell>
        <mxCell id="hDYIFtOWEY20ZJu3OGL6-10" value="1.4 Conduct Risk Assessments" style="rounded=1;whiteSpace=wrap;html=1;strokeColor=none;fillColor=#1AAE9F;labelBackgroundColor=none;labelBorderColor=none;fontColor=#FFFFFF;" vertex="1" parent="1">
          <mxGeometry x="524" y="520" width="120" height="60" as="geometry" />
        </mxCell>
        <mxCell id="hDYIFtOWEY20ZJu3OGL6-11" value="" style="edgeStyle=orthogonalEdgeStyle;orthogonalLoop=1;jettySize=auto;html=1;strokeColor=#999999;strokeWidth=2;fontColor=#FFFFFF;startArrow=none;startFill=0;endArrow=block;endFill=1;sourcePerimeterSpacing=2;targetPerimeterSpacing=2;" edge="1" parent="1" source="hDYIFtOWEY20ZJu3OGL6-12" target="hDYIFtOWEY20ZJu3OGL6-14">
          <mxGeometry relative="1" as="geometry" />
        </mxCell>
        <mxCell id="hDYIFtOWEY20ZJu3OGL6-12" value="1.5 Define/Review Incident Prioritisation and Categorisation" style="rounded=1;whiteSpace=wrap;html=1;strokeColor=none;fillColor=#1AAE9F;labelBackgroundColor=none;labelBorderColor=none;fontColor=#FFFFFF;" vertex="1" parent="1">
          <mxGeometry x="524" y="620" width="120" height="60" as="geometry" />
        </mxCell>
        <mxCell id="hDYIFtOWEY20ZJu3OGL6-13" value="" style="edgeStyle=orthogonalEdgeStyle;orthogonalLoop=1;jettySize=auto;html=1;strokeColor=#999999;strokeWidth=2;fontColor=#FFFFFF;startArrow=none;startFill=0;endArrow=block;endFill=1;sourcePerimeterSpacing=2;targetPerimeterSpacing=2;" edge="1" parent="1" source="hDYIFtOWEY20ZJu3OGL6-14" target="hDYIFtOWEY20ZJu3OGL6-16">
          <mxGeometry relative="1" as="geometry" />
        </mxCell>
        <mxCell id="hDYIFtOWEY20ZJu3OGL6-14" value="1.6 Establish Processes" style="rounded=1;whiteSpace=wrap;html=1;strokeColor=none;fillColor=#1AAE9F;labelBackgroundColor=none;labelBorderColor=none;fontColor=#FFFFFF;" vertex="1" parent="1">
          <mxGeometry x="524" y="720" width="120" height="60" as="geometry" />
        </mxCell>
        <mxCell id="hDYIFtOWEY20ZJu3OGL6-15" value="" style="edgeStyle=orthogonalEdgeStyle;orthogonalLoop=1;jettySize=auto;html=1;strokeColor=#999999;strokeWidth=2;fontColor=#FFFFFF;startArrow=none;startFill=0;endArrow=block;endFill=1;sourcePerimeterSpacing=2;targetPerimeterSpacing=2;" edge="1" parent="1" source="hDYIFtOWEY20ZJu3OGL6-16" target="hDYIFtOWEY20ZJu3OGL6-18">
          <mxGeometry relative="1" as="geometry" />
        </mxCell>
        <mxCell id="hDYIFtOWEY20ZJu3OGL6-16" value="1.7 Establish Controls" style="rounded=1;whiteSpace=wrap;html=1;strokeColor=none;fillColor=#1AAE9F;labelBackgroundColor=none;labelBorderColor=none;fontColor=#FFFFFF;" vertex="1" parent="1">
          <mxGeometry x="524" y="820" width="120" height="60" as="geometry" />
        </mxCell>
        <mxCell id="hDYIFtOWEY20ZJu3OGL6-17" value="" style="edgeStyle=orthogonalEdgeStyle;orthogonalLoop=1;jettySize=auto;html=1;strokeColor=#999999;strokeWidth=2;fontColor=#FFFFFF;startArrow=none;startFill=0;endArrow=block;endFill=1;sourcePerimeterSpacing=2;targetPerimeterSpacing=2;" edge="1" parent="1" source="hDYIFtOWEY20ZJu3OGL6-18" target="hDYIFtOWEY20ZJu3OGL6-20">
          <mxGeometry relative="1" as="geometry" />
        </mxCell>
        <mxCell id="hDYIFtOWEY20ZJu3OGL6-18" value="1.8 Document/Review IRP" style="rounded=1;whiteSpace=wrap;html=1;strokeColor=none;fillColor=#1AAE9F;labelBackgroundColor=none;labelBorderColor=none;fontColor=#FFFFFF;" vertex="1" parent="1">
          <mxGeometry x="354" y="820" width="120" height="60" as="geometry" />
        </mxCell>
        <mxCell id="hDYIFtOWEY20ZJu3OGL6-19" value="" style="edgeStyle=orthogonalEdgeStyle;orthogonalLoop=1;jettySize=auto;html=1;strokeColor=#999999;strokeWidth=2;fontColor=#FFFFFF;startArrow=none;startFill=0;endArrow=block;endFill=1;sourcePerimeterSpacing=2;targetPerimeterSpacing=2;" edge="1" parent="1" source="hDYIFtOWEY20ZJu3OGL6-20" target="hDYIFtOWEY20ZJu3OGL6-22">
          <mxGeometry relative="1" as="geometry" />
        </mxCell>
        <mxCell id="hDYIFtOWEY20ZJu3OGL6-20" value="1.9 Approve IRP" style="rounded=1;whiteSpace=wrap;html=1;strokeColor=none;fillColor=#1AAE9F;labelBackgroundColor=none;labelBorderColor=none;fontColor=#FFFFFF;" vertex="1" parent="1">
          <mxGeometry x="183" y="820" width="120" height="60" as="geometry" />
        </mxCell>
        <mxCell id="hDYIFtOWEY20ZJu3OGL6-21" value="" style="edgeStyle=orthogonalEdgeStyle;orthogonalLoop=1;jettySize=auto;html=1;strokeColor=#999999;strokeWidth=2;fontColor=#FFFFFF;startArrow=none;startFill=0;endArrow=block;endFill=1;sourcePerimeterSpacing=2;targetPerimeterSpacing=2;" edge="1" parent="1" source="hDYIFtOWEY20ZJu3OGL6-22" target="hDYIFtOWEY20ZJu3OGL6-24">
          <mxGeometry relative="1" as="geometry" />
        </mxCell>
        <mxCell id="hDYIFtOWEY20ZJu3OGL6-22" value="1.10 Establish IR Resources" style="rounded=1;whiteSpace=wrap;html=1;strokeColor=none;fillColor=#1AAE9F;labelBackgroundColor=none;labelBorderColor=none;fontColor=#FFFFFF;" vertex="1" parent="1">
          <mxGeometry x="183" y="720" width="120" height="60" as="geometry" />
        </mxCell>
        <mxCell id="hDYIFtOWEY20ZJu3OGL6-23" value="" style="edgeStyle=orthogonalEdgeStyle;orthogonalLoop=1;jettySize=auto;html=1;strokeColor=#999999;strokeWidth=2;fontColor=#FFFFFF;startArrow=none;startFill=0;endArrow=block;endFill=1;sourcePerimeterSpacing=2;targetPerimeterSpacing=2;" edge="1" parent="1" source="hDYIFtOWEY20ZJu3OGL6-24" target="hDYIFtOWEY20ZJu3OGL6-26">
          <mxGeometry relative="1" as="geometry" />
        </mxCell>
        <mxCell id="hDYIFtOWEY20ZJu3OGL6-24" value="1.11 Disseminate IRP" style="rounded=1;whiteSpace=wrap;html=1;strokeColor=none;fillColor=#1AAE9F;labelBackgroundColor=none;labelBorderColor=none;fontColor=#FFFFFF;" vertex="1" parent="1">
          <mxGeometry x="183" y="620" width="120" height="60" as="geometry" />
        </mxCell>
        <mxCell id="hDYIFtOWEY20ZJu3OGL6-25" value="" style="edgeStyle=orthogonalEdgeStyle;orthogonalLoop=1;jettySize=auto;html=1;strokeColor=#999999;strokeWidth=2;fontColor=#FFFFFF;startArrow=none;startFill=0;endArrow=block;endFill=1;sourcePerimeterSpacing=2;targetPerimeterSpacing=2;" edge="1" parent="1" source="hDYIFtOWEY20ZJu3OGL6-26" target="hDYIFtOWEY20ZJu3OGL6-27">
          <mxGeometry relative="1" as="geometry" />
        </mxCell>
        <mxCell id="hDYIFtOWEY20ZJu3OGL6-26" value="1.12 Awareness and Training" style="rounded=1;whiteSpace=wrap;html=1;strokeColor=none;fillColor=#1AAE9F;labelBackgroundColor=none;labelBorderColor=none;fontColor=#FFFFFF;" vertex="1" parent="1">
          <mxGeometry x="183" y="520" width="120" height="60" as="geometry" />
        </mxCell>
        <mxCell id="hDYIFtOWEY20ZJu3OGL6-27" value="1.13 Exercise IRP" style="rounded=1;whiteSpace=wrap;html=1;strokeColor=none;fillColor=#1AAE9F;labelBackgroundColor=none;labelBorderColor=none;fontColor=#FFFFFF;" vertex="1" parent="1">
          <mxGeometry x="183" y="420" width="120" height="60" as="geometry" />
        </mxCell>
        <mxCell id="hDYIFtOWEY20ZJu3OGL6-28" value="" style="endArrow=none;html=1;strokeColor=#999999;strokeWidth=2;fontColor=#FFFFFF;sourcePerimeterSpacing=2;targetPerimeterSpacing=2;exitX=1.009;exitY=0.495;exitDx=0;exitDy=0;entryX=0;entryY=0.5;entryDx=0;entryDy=0;edgeStyle=elbowEdgeStyle;rounded=1;jumpStyle=none;dashed=1;jumpSize=6;endSize=6;endFill=0;exitPerimeter=0;" edge="1" parent="1" source="hDYIFtOWEY20ZJu3OGL6-27" target="hDYIFtOWEY20ZJu3OGL6-2">
          <mxGeometry width="50" height="50" relative="1" as="geometry">
            <mxPoint x="434" y="380" as="sourcePoint" />
            <mxPoint x="484" y="330" as="targetPoint" />
          </mxGeometry>
        </mxCell>
      </root>
    </mxGraphModel>
  </diagram>
  <diagram id="4rUBwiiYqs2ITLAJCetx" name="Figure 3 Identification">
    <mxGraphModel dx="966" dy="1292" grid="1" gridSize="10" guides="1" tooltips="1" connect="1" arrows="1" fold="1" page="1" pageScale="1" pageWidth="827" pageHeight="1169" math="0" shadow="0">
      <root>
        <mxCell id="0" />
        <mxCell id="1" parent="0" />
        <mxCell id="oMiz9BfPfQwVCnKsYQ2V-1" value="" style="endArrow=block;html=1;entryX=0.5;entryY=0;entryDx=0;entryDy=0;edgeStyle=orthogonalEdgeStyle;strokeWidth=2;strokeColor=#1AAE9F;startArrow=none;endFill=1;exitX=1;exitY=0.5;exitDx=0;exitDy=0;" edge="1" parent="1" source="oMiz9BfPfQwVCnKsYQ2V-16" target="oMiz9BfPfQwVCnKsYQ2V-19">
          <mxGeometry width="50" height="50" relative="1" as="geometry">
            <mxPoint x="537" y="730" as="sourcePoint" />
            <mxPoint x="267" y="970" as="targetPoint" />
            <Array as="points">
              <mxPoint x="587" y="790" />
            </Array>
          </mxGeometry>
        </mxCell>
        <mxCell id="oMiz9BfPfQwVCnKsYQ2V-2" value="" style="edgeStyle=orthogonalEdgeStyle;orthogonalLoop=1;jettySize=auto;html=1;strokeColor=#999999;strokeWidth=2;fontColor=#FFFFFF;startArrow=none;startFill=0;endArrow=block;endFill=1;sourcePerimeterSpacing=2;targetPerimeterSpacing=2;" edge="1" parent="1" source="oMiz9BfPfQwVCnKsYQ2V-3" target="oMiz9BfPfQwVCnKsYQ2V-8">
          <mxGeometry relative="1" as="geometry">
            <mxPoint x="195" y="570" as="targetPoint" />
          </mxGeometry>
        </mxCell>
        <mxCell id="oMiz9BfPfQwVCnKsYQ2V-3" value="2.0 Start Identification Phase" style="triangle;whiteSpace=wrap;html=1;rounded=1;labelBackgroundColor=none;labelBorderColor=none;strokeColor=none;fontColor=default;fillColor=#F7C325;align=left;" vertex="1" parent="1">
          <mxGeometry x="41" y="510" width="90" height="120" as="geometry" />
        </mxCell>
        <mxCell id="oMiz9BfPfQwVCnKsYQ2V-4" value="" style="edgeStyle=elbowEdgeStyle;rounded=1;jumpStyle=none;jumpSize=6;orthogonalLoop=1;jettySize=auto;html=1;strokeColor=#999999;strokeWidth=2;fontSize=8;fontColor=#000000;startArrow=none;startFill=0;endArrow=block;endFill=1;endSize=6;sourcePerimeterSpacing=2;targetPerimeterSpacing=2;" edge="1" parent="1" source="oMiz9BfPfQwVCnKsYQ2V-5" target="oMiz9BfPfQwVCnKsYQ2V-14">
          <mxGeometry relative="1" as="geometry" />
        </mxCell>
        <mxCell id="oMiz9BfPfQwVCnKsYQ2V-5" value="2.3 Event Assessment" style="rounded=1;whiteSpace=wrap;html=1;strokeColor=none;fillColor=#F7C325;labelBackgroundColor=none;labelBorderColor=none;fontColor=default;" vertex="1" parent="1">
          <mxGeometry x="197" y="650" width="120" height="60" as="geometry" />
        </mxCell>
        <mxCell id="oMiz9BfPfQwVCnKsYQ2V-6" value="" style="edgeStyle=elbowEdgeStyle;rounded=1;jumpStyle=none;jumpSize=6;orthogonalLoop=1;jettySize=auto;html=1;strokeColor=#999999;strokeWidth=2;fontColor=#FFFFFF;startArrow=none;startFill=0;endArrow=block;endFill=1;endSize=6;targetPerimeterSpacing=2;" edge="1" parent="1" source="oMiz9BfPfQwVCnKsYQ2V-9" target="oMiz9BfPfQwVCnKsYQ2V-5">
          <mxGeometry relative="1" as="geometry" />
        </mxCell>
        <mxCell id="oMiz9BfPfQwVCnKsYQ2V-7" value="" style="edgeStyle=elbowEdgeStyle;rounded=1;jumpStyle=none;jumpSize=6;orthogonalLoop=1;jettySize=auto;html=1;strokeColor=#999999;strokeWidth=2;fontSize=8;fontColor=#000000;startArrow=none;startFill=0;endArrow=block;endFill=1;endSize=6;sourcePerimeterSpacing=2;targetPerimeterSpacing=2;" edge="1" parent="1" source="oMiz9BfPfQwVCnKsYQ2V-8" target="oMiz9BfPfQwVCnKsYQ2V-11">
          <mxGeometry relative="1" as="geometry" />
        </mxCell>
        <mxCell id="oMiz9BfPfQwVCnKsYQ2V-8" value="2.1&lt;br&gt;Event Notification or RFI?" style="rhombus;whiteSpace=wrap;html=1;rounded=1;labelBackgroundColor=none;labelBorderColor=none;strokeColor=none;fontColor=default;fillColor=#F7C325;" vertex="1" parent="1">
          <mxGeometry x="197" y="530" width="120" height="80" as="geometry" />
        </mxCell>
        <mxCell id="oMiz9BfPfQwVCnKsYQ2V-9" value="Event" style="text;html=1;strokeColor=none;fillColor=none;align=center;verticalAlign=middle;whiteSpace=wrap;rounded=0;labelBackgroundColor=none;labelBorderColor=none;fontColor=#000000;fontSize=8;" vertex="1" parent="1">
          <mxGeometry x="227" y="620" width="60" height="10" as="geometry" />
        </mxCell>
        <mxCell id="oMiz9BfPfQwVCnKsYQ2V-10" value="" style="edgeStyle=elbowEdgeStyle;rounded=1;jumpStyle=none;jumpSize=6;orthogonalLoop=1;jettySize=auto;html=1;strokeColor=#999999;strokeWidth=2;fontColor=#FFFFFF;startArrow=none;startFill=0;endArrow=none;endFill=1;endSize=6;sourcePerimeterSpacing=2;" edge="1" parent="1" target="oMiz9BfPfQwVCnKsYQ2V-9">
          <mxGeometry relative="1" as="geometry">
            <mxPoint x="257" y="610" as="sourcePoint" />
            <mxPoint x="257.1428571428571" y="638" as="targetPoint" />
            <Array as="points">
              <mxPoint x="257" y="610" />
            </Array>
          </mxGeometry>
        </mxCell>
        <mxCell id="oMiz9BfPfQwVCnKsYQ2V-11" value="2.2 Is the Reported Activity Legit?" style="rhombus;whiteSpace=wrap;html=1;rounded=1;labelBackgroundColor=none;labelBorderColor=none;strokeColor=none;fontColor=default;fillColor=#F7C325;" vertex="1" parent="1">
          <mxGeometry x="367" y="530" width="120" height="80" as="geometry" />
        </mxCell>
        <mxCell id="oMiz9BfPfQwVCnKsYQ2V-12" value="" style="edgeStyle=elbowEdgeStyle;rounded=1;jumpStyle=none;jumpSize=6;orthogonalLoop=1;jettySize=auto;html=1;strokeColor=#999999;strokeWidth=2;fontSize=8;fontColor=#000000;startArrow=none;startFill=0;endArrow=block;endFill=1;endSize=6;sourcePerimeterSpacing=2;targetPerimeterSpacing=2;" edge="1" parent="1" source="oMiz9BfPfQwVCnKsYQ2V-14" target="oMiz9BfPfQwVCnKsYQ2V-16">
          <mxGeometry relative="1" as="geometry" />
        </mxCell>
        <mxCell id="oMiz9BfPfQwVCnKsYQ2V-13" value="" style="edgeStyle=elbowEdgeStyle;rounded=0;jumpStyle=none;jumpSize=6;orthogonalLoop=1;jettySize=auto;html=1;strokeColor=#D3455B;strokeWidth=2;fontSize=8;fontColor=#000000;startArrow=none;startFill=0;endArrow=block;endFill=1;endSize=6;targetPerimeterSpacing=2;" edge="1" parent="1" source="oMiz9BfPfQwVCnKsYQ2V-34" target="oMiz9BfPfQwVCnKsYQ2V-28">
          <mxGeometry relative="1" as="geometry" />
        </mxCell>
        <mxCell id="oMiz9BfPfQwVCnKsYQ2V-14" value="2.4 Is it an Incident?" style="rhombus;whiteSpace=wrap;html=1;rounded=1;labelBackgroundColor=none;labelBorderColor=none;strokeColor=none;fontColor=default;fillColor=#F7C325;" vertex="1" parent="1">
          <mxGeometry x="197" y="750" width="120" height="80" as="geometry" />
        </mxCell>
        <mxCell id="oMiz9BfPfQwVCnKsYQ2V-15" value="" style="edgeStyle=elbowEdgeStyle;rounded=1;jumpStyle=none;jumpSize=6;orthogonalLoop=1;jettySize=auto;html=1;strokeColor=#999999;strokeWidth=2;fontSize=8;fontColor=#000000;startArrow=none;startFill=0;endArrow=block;endFill=1;endSize=6;targetPerimeterSpacing=2;" edge="1" parent="1" source="oMiz9BfPfQwVCnKsYQ2V-22" target="oMiz9BfPfQwVCnKsYQ2V-18">
          <mxGeometry relative="1" as="geometry" />
        </mxCell>
        <mxCell id="oMiz9BfPfQwVCnKsYQ2V-16" value="2.12 Event is a False Positive?" style="rhombus;whiteSpace=wrap;html=1;rounded=1;labelBackgroundColor=none;labelBorderColor=none;strokeColor=none;fontColor=default;fillColor=#F7C325;" vertex="1" parent="1">
          <mxGeometry x="367" y="750" width="120" height="80" as="geometry" />
        </mxCell>
        <mxCell id="oMiz9BfPfQwVCnKsYQ2V-17" value="" style="edgeStyle=elbowEdgeStyle;rounded=1;jumpStyle=none;jumpSize=6;orthogonalLoop=1;jettySize=auto;html=1;strokeColor=#999999;strokeWidth=2;fontSize=8;fontColor=#000000;startArrow=none;startFill=0;endArrow=block;endFill=1;endSize=6;targetPerimeterSpacing=2;" edge="1" parent="1" source="oMiz9BfPfQwVCnKsYQ2V-25" target="oMiz9BfPfQwVCnKsYQ2V-16">
          <mxGeometry relative="1" as="geometry">
            <mxPoint x="267.1428571428571" y="722" as="sourcePoint" />
            <mxPoint x="267.1428571428571" y="758.0967741935483" as="targetPoint" />
          </mxGeometry>
        </mxCell>
        <mxCell id="oMiz9BfPfQwVCnKsYQ2V-18" value="2.13 Handle Non-Incident Events" style="shape=parallelogram;perimeter=parallelogramPerimeter;whiteSpace=wrap;html=1;fixedSize=1;rounded=1;labelBackgroundColor=none;labelBorderColor=none;strokeColor=none;fontSize=12;fontColor=default;fillColor=#F7C325;" vertex="1" parent="1">
          <mxGeometry x="367" y="870" width="120" height="60" as="geometry" />
        </mxCell>
        <mxCell id="oMiz9BfPfQwVCnKsYQ2V-19" value="6.0 Start &lt;br&gt;Post Incident Activities &lt;br&gt;Phase" style="triangle;whiteSpace=wrap;html=1;rounded=1;labelBackgroundColor=none;labelBorderColor=none;strokeColor=none;fontColor=#FFFFFF;fillColor=#6558F5;align=left;" vertex="1" parent="1">
          <mxGeometry x="542" y="840" width="90" height="120" as="geometry" />
        </mxCell>
        <mxCell id="oMiz9BfPfQwVCnKsYQ2V-20" value="" style="edgeStyle=elbowEdgeStyle;rounded=0;jumpStyle=none;jumpSize=6;orthogonalLoop=1;jettySize=auto;html=1;strokeColor=#999999;strokeWidth=2;fontSize=8;fontColor=#000000;startArrow=none;startFill=0;endArrow=block;endFill=1;endSize=6;sourcePerimeterSpacing=2;targetPerimeterSpacing=2;exitX=0.926;exitY=0.499;exitDx=0;exitDy=0;entryX=-0.017;entryY=0.498;entryDx=0;entryDy=0;entryPerimeter=0;exitPerimeter=0;" edge="1" parent="1" source="oMiz9BfPfQwVCnKsYQ2V-18" target="oMiz9BfPfQwVCnKsYQ2V-19">
          <mxGeometry relative="1" as="geometry">
            <mxPoint x="436.8571428571429" y="841.9032258064517" as="sourcePoint" />
            <mxPoint x="527" y="900" as="targetPoint" />
            <Array as="points">
              <mxPoint x="497" y="910" />
            </Array>
          </mxGeometry>
        </mxCell>
        <mxCell id="oMiz9BfPfQwVCnKsYQ2V-21" value="No" style="text;html=1;strokeColor=none;fillColor=none;align=center;verticalAlign=middle;whiteSpace=wrap;rounded=0;labelBackgroundColor=none;labelBorderColor=none;fontColor=#000000;fontSize=8;" vertex="1" parent="1">
          <mxGeometry x="557" y="560" width="60" height="10" as="geometry" />
        </mxCell>
        <mxCell id="oMiz9BfPfQwVCnKsYQ2V-22" value="No" style="text;html=1;strokeColor=none;fillColor=none;align=center;verticalAlign=middle;whiteSpace=wrap;rounded=0;labelBackgroundColor=none;labelBorderColor=none;fontColor=#000000;fontSize=8;" vertex="1" parent="1">
          <mxGeometry x="397" y="840" width="60" height="10" as="geometry" />
        </mxCell>
        <mxCell id="oMiz9BfPfQwVCnKsYQ2V-23" value="" style="edgeStyle=elbowEdgeStyle;rounded=1;jumpStyle=none;jumpSize=6;orthogonalLoop=1;jettySize=auto;html=1;strokeColor=#999999;strokeWidth=2;fontSize=8;fontColor=#000000;startArrow=none;startFill=0;endArrow=none;endFill=1;endSize=6;sourcePerimeterSpacing=2;" edge="1" parent="1" source="oMiz9BfPfQwVCnKsYQ2V-16" target="oMiz9BfPfQwVCnKsYQ2V-22">
          <mxGeometry relative="1" as="geometry">
            <mxPoint x="426.8571428571429" y="831.9032258064517" as="sourcePoint" />
            <mxPoint x="426.8571428571429" y="868" as="targetPoint" />
          </mxGeometry>
        </mxCell>
        <mxCell id="oMiz9BfPfQwVCnKsYQ2V-24" value="Yes" style="text;html=1;strokeColor=none;fillColor=none;align=center;verticalAlign=middle;whiteSpace=wrap;rounded=0;labelBackgroundColor=none;labelBorderColor=none;fontColor=#000000;fontSize=8;" vertex="1" parent="1">
          <mxGeometry x="507" y="780" width="60" height="10" as="geometry" />
        </mxCell>
        <mxCell id="oMiz9BfPfQwVCnKsYQ2V-25" value="Yes" style="text;html=1;strokeColor=none;fillColor=none;align=center;verticalAlign=middle;whiteSpace=wrap;rounded=0;labelBackgroundColor=none;labelBorderColor=none;fontColor=#000000;fontSize=8;" vertex="1" parent="1">
          <mxGeometry x="397" y="670" width="60" height="10" as="geometry" />
        </mxCell>
        <mxCell id="oMiz9BfPfQwVCnKsYQ2V-26" value="" style="edgeStyle=elbowEdgeStyle;rounded=1;jumpStyle=none;jumpSize=6;orthogonalLoop=1;jettySize=auto;html=1;strokeColor=#999999;strokeWidth=2;fontSize=8;fontColor=#000000;startArrow=none;startFill=0;endArrow=none;endFill=1;endSize=6;sourcePerimeterSpacing=2;" edge="1" parent="1" source="oMiz9BfPfQwVCnKsYQ2V-11" target="oMiz9BfPfQwVCnKsYQ2V-25">
          <mxGeometry relative="1" as="geometry">
            <mxPoint x="426.8571428571429" y="611.9032258064517" as="sourcePoint" />
            <mxPoint x="426.8571428571429" y="748.0967741935483" as="targetPoint" />
          </mxGeometry>
        </mxCell>
        <mxCell id="oMiz9BfPfQwVCnKsYQ2V-27" value="" style="edgeStyle=elbowEdgeStyle;rounded=0;jumpStyle=none;jumpSize=6;orthogonalLoop=1;jettySize=auto;html=1;strokeColor=#999999;strokeWidth=2;fontSize=8;fontColor=#000000;startArrow=none;startFill=0;endArrow=block;endFill=1;endSize=6;sourcePerimeterSpacing=2;targetPerimeterSpacing=2;" edge="1" parent="1" source="oMiz9BfPfQwVCnKsYQ2V-28" target="oMiz9BfPfQwVCnKsYQ2V-30">
          <mxGeometry relative="1" as="geometry" />
        </mxCell>
        <mxCell id="oMiz9BfPfQwVCnKsYQ2V-28" value="2.5 Declare Incident" style="rounded=1;whiteSpace=wrap;html=1;strokeColor=none;fillColor=#F7C325;labelBackgroundColor=none;labelBorderColor=none;fontColor=default;" vertex="1" parent="1">
          <mxGeometry x="197" y="870" width="120" height="60" as="geometry" />
        </mxCell>
        <mxCell id="oMiz9BfPfQwVCnKsYQ2V-29" value="" style="edgeStyle=elbowEdgeStyle;rounded=0;jumpStyle=none;jumpSize=6;orthogonalLoop=1;jettySize=auto;html=1;strokeColor=#999999;strokeWidth=2;fontSize=8;fontColor=#000000;startArrow=none;startFill=0;endArrow=block;endFill=1;endSize=6;sourcePerimeterSpacing=2;targetPerimeterSpacing=2;" edge="1" parent="1" source="oMiz9BfPfQwVCnKsYQ2V-30" target="oMiz9BfPfQwVCnKsYQ2V-32">
          <mxGeometry relative="1" as="geometry" />
        </mxCell>
        <mxCell id="oMiz9BfPfQwVCnKsYQ2V-30" value="2.6 Log and Track Incident" style="rounded=1;whiteSpace=wrap;html=1;strokeColor=none;fillColor=#F7C325;labelBackgroundColor=none;labelBorderColor=none;fontColor=default;" vertex="1" parent="1">
          <mxGeometry x="197" y="970" width="120" height="60" as="geometry" />
        </mxCell>
        <mxCell id="oMiz9BfPfQwVCnKsYQ2V-31" value="" style="edgeStyle=elbowEdgeStyle;rounded=0;jumpStyle=none;jumpSize=6;orthogonalLoop=1;jettySize=auto;html=1;strokeColor=#999999;strokeWidth=2;fontSize=8;fontColor=#000000;startArrow=none;startFill=0;endArrow=block;endFill=1;endSize=6;sourcePerimeterSpacing=2;targetPerimeterSpacing=2;" edge="1" parent="1" source="oMiz9BfPfQwVCnKsYQ2V-32" target="oMiz9BfPfQwVCnKsYQ2V-38">
          <mxGeometry relative="1" as="geometry" />
        </mxCell>
        <mxCell id="oMiz9BfPfQwVCnKsYQ2V-32" value="2.7 Determine Incident Priority" style="rounded=1;whiteSpace=wrap;html=1;strokeColor=none;fillColor=#F7C325;labelBackgroundColor=none;labelBorderColor=none;fontColor=default;" vertex="1" parent="1">
          <mxGeometry x="197" y="1070" width="120" height="60" as="geometry" />
        </mxCell>
        <mxCell id="oMiz9BfPfQwVCnKsYQ2V-33" value="No" style="text;html=1;strokeColor=none;fillColor=none;align=center;verticalAlign=middle;whiteSpace=wrap;rounded=0;labelBackgroundColor=none;labelBorderColor=none;fontColor=#000000;fontSize=8;" vertex="1" parent="1">
          <mxGeometry x="307" y="780" width="60" height="10" as="geometry" />
        </mxCell>
        <mxCell id="oMiz9BfPfQwVCnKsYQ2V-34" value="Yes" style="text;html=1;strokeColor=none;fillColor=none;align=center;verticalAlign=middle;whiteSpace=wrap;rounded=0;labelBackgroundColor=none;labelBorderColor=none;fontColor=#000000;fontSize=8;" vertex="1" parent="1">
          <mxGeometry x="227" y="840" width="60" height="10" as="geometry" />
        </mxCell>
        <mxCell id="oMiz9BfPfQwVCnKsYQ2V-35" value="" style="edgeStyle=elbowEdgeStyle;rounded=0;jumpStyle=none;jumpSize=6;orthogonalLoop=1;jettySize=auto;html=1;strokeColor=#D3455B;strokeWidth=2;fontSize=8;fontColor=#000000;startArrow=none;startFill=0;endArrow=none;endFill=1;endSize=6;sourcePerimeterSpacing=2;" edge="1" parent="1" source="oMiz9BfPfQwVCnKsYQ2V-14" target="oMiz9BfPfQwVCnKsYQ2V-34">
          <mxGeometry relative="1" as="geometry">
            <mxPoint x="257.1428571428571" y="831.9032258064517" as="sourcePoint" />
            <mxPoint x="257.1428571428571" y="868" as="targetPoint" />
          </mxGeometry>
        </mxCell>
        <mxCell id="oMiz9BfPfQwVCnKsYQ2V-36" value="RFI" style="text;html=1;strokeColor=none;fillColor=none;align=center;verticalAlign=middle;whiteSpace=wrap;rounded=0;labelBackgroundColor=none;labelBorderColor=none;fontColor=#000000;fontSize=8;" vertex="1" parent="1">
          <mxGeometry x="307" y="560" width="60" height="10" as="geometry" />
        </mxCell>
        <mxCell id="oMiz9BfPfQwVCnKsYQ2V-37" value="" style="edgeStyle=elbowEdgeStyle;rounded=0;jumpStyle=none;jumpSize=6;orthogonalLoop=1;jettySize=auto;html=1;strokeColor=#999999;strokeWidth=2;fontSize=8;fontColor=#000000;startArrow=none;startFill=0;endArrow=block;endFill=1;endSize=6;sourcePerimeterSpacing=2;targetPerimeterSpacing=2;" edge="1" parent="1" source="oMiz9BfPfQwVCnKsYQ2V-38" target="oMiz9BfPfQwVCnKsYQ2V-41">
          <mxGeometry relative="1" as="geometry" />
        </mxCell>
        <mxCell id="oMiz9BfPfQwVCnKsYQ2V-38" value="2.8 Inform Stakeholders According to the Incident Priority" style="rounded=1;whiteSpace=wrap;html=1;strokeColor=none;fillColor=#F7C325;labelBackgroundColor=none;labelBorderColor=none;fontColor=default;" vertex="1" parent="1">
          <mxGeometry x="197" y="1170" width="120" height="60" as="geometry" />
        </mxCell>
        <mxCell id="oMiz9BfPfQwVCnKsYQ2V-39" value="" style="edgeStyle=elbowEdgeStyle;rounded=0;jumpStyle=none;jumpSize=6;orthogonalLoop=1;jettySize=auto;html=1;strokeColor=#999999;strokeWidth=2;fontSize=8;fontColor=#000000;startArrow=none;startFill=0;endArrow=block;endFill=1;endSize=6;sourcePerimeterSpacing=2;targetPerimeterSpacing=2;" edge="1" parent="1" source="oMiz9BfPfQwVCnKsYQ2V-41" target="oMiz9BfPfQwVCnKsYQ2V-43">
          <mxGeometry relative="1" as="geometry" />
        </mxCell>
        <mxCell id="oMiz9BfPfQwVCnKsYQ2V-40" value="" style="edgeStyle=elbowEdgeStyle;rounded=0;jumpStyle=none;jumpSize=6;orthogonalLoop=1;jettySize=auto;html=1;strokeColor=#999999;strokeWidth=2;fontSize=8;fontColor=#000000;startArrow=none;startFill=0;endArrow=block;endFill=1;endSize=6;targetPerimeterSpacing=2;" edge="1" parent="1" source="oMiz9BfPfQwVCnKsYQ2V-47" target="oMiz9BfPfQwVCnKsYQ2V-46">
          <mxGeometry relative="1" as="geometry" />
        </mxCell>
        <mxCell id="oMiz9BfPfQwVCnKsYQ2V-41" value="2.9&lt;br&gt;Specific Playbook is Available?" style="rhombus;whiteSpace=wrap;html=1;rounded=1;labelBackgroundColor=none;labelBorderColor=none;strokeColor=none;fontColor=default;fillColor=#F7C325;" vertex="1" parent="1">
          <mxGeometry x="367" y="1160" width="120" height="80" as="geometry" />
        </mxCell>
        <mxCell id="oMiz9BfPfQwVCnKsYQ2V-42" value="" style="edgeStyle=elbowEdgeStyle;rounded=0;jumpStyle=none;jumpSize=6;orthogonalLoop=1;jettySize=auto;html=1;strokeColor=#999999;strokeWidth=2;fontSize=8;fontColor=#000000;startArrow=none;startFill=0;endArrow=block;endFill=1;endSize=6;sourcePerimeterSpacing=2;targetPerimeterSpacing=2;" edge="1" parent="1" source="oMiz9BfPfQwVCnKsYQ2V-43" target="oMiz9BfPfQwVCnKsYQ2V-45">
          <mxGeometry relative="1" as="geometry" />
        </mxCell>
        <mxCell id="oMiz9BfPfQwVCnKsYQ2V-43" value="2.10 Activate Respective &lt;br&gt;Playbook" style="shape=parallelogram;perimeter=parallelogramPerimeter;whiteSpace=wrap;html=1;fixedSize=1;rounded=1;labelBackgroundColor=none;labelBorderColor=none;strokeColor=none;fontSize=12;fontColor=default;fillColor=#F7C325;" vertex="1" parent="1">
          <mxGeometry x="527" y="1170" width="120" height="60" as="geometry" />
        </mxCell>
        <mxCell id="oMiz9BfPfQwVCnKsYQ2V-44" value="" style="edgeStyle=elbowEdgeStyle;rounded=0;jumpStyle=none;jumpSize=6;orthogonalLoop=1;jettySize=auto;html=1;strokeColor=#999999;strokeWidth=2;fontSize=8;fontColor=#000000;startArrow=none;startFill=0;endArrow=block;endFill=1;endSize=6;sourcePerimeterSpacing=2;targetPerimeterSpacing=2;" edge="1" parent="1" source="oMiz9BfPfQwVCnKsYQ2V-45" target="oMiz9BfPfQwVCnKsYQ2V-50">
          <mxGeometry relative="1" as="geometry" />
        </mxCell>
        <mxCell id="oMiz9BfPfQwVCnKsYQ2V-45" value="2.11 Playbook Ran Successfully?" style="rhombus;whiteSpace=wrap;html=1;rounded=1;labelBackgroundColor=none;labelBorderColor=none;strokeColor=none;fontColor=default;fillColor=#F7C325;" vertex="1" parent="1">
          <mxGeometry x="527" y="1270" width="120" height="80" as="geometry" />
        </mxCell>
        <mxCell id="oMiz9BfPfQwVCnKsYQ2V-46" value="2.14 Conduct Generic Analysis and Scoping of the Incident" style="rounded=1;whiteSpace=wrap;html=1;strokeColor=none;fillColor=#F7C325;labelBackgroundColor=none;labelBorderColor=none;fontColor=default;" vertex="1" parent="1">
          <mxGeometry x="367" y="1280" width="120" height="60" as="geometry" />
        </mxCell>
        <mxCell id="oMiz9BfPfQwVCnKsYQ2V-47" value="No" style="text;html=1;strokeColor=none;fillColor=none;align=center;verticalAlign=middle;whiteSpace=wrap;rounded=0;labelBackgroundColor=none;labelBorderColor=none;fontColor=#000000;fontSize=8;" vertex="1" parent="1">
          <mxGeometry x="397" y="1250" width="60" height="10" as="geometry" />
        </mxCell>
        <mxCell id="oMiz9BfPfQwVCnKsYQ2V-48" value="" style="edgeStyle=elbowEdgeStyle;rounded=0;jumpStyle=none;jumpSize=6;orthogonalLoop=1;jettySize=auto;html=1;strokeColor=#999999;strokeWidth=2;fontSize=8;fontColor=#000000;startArrow=none;startFill=0;endArrow=none;endFill=1;endSize=6;sourcePerimeterSpacing=2;" edge="1" parent="1" source="oMiz9BfPfQwVCnKsYQ2V-41" target="oMiz9BfPfQwVCnKsYQ2V-47">
          <mxGeometry relative="1" as="geometry">
            <mxPoint x="426.8571428571429" y="1241.9032258064517" as="sourcePoint" />
            <mxPoint x="426.8571428571429" y="1278" as="targetPoint" />
          </mxGeometry>
        </mxCell>
        <mxCell id="oMiz9BfPfQwVCnKsYQ2V-49" value="Yes" style="text;html=1;strokeColor=none;fillColor=none;align=center;verticalAlign=middle;whiteSpace=wrap;rounded=0;labelBackgroundColor=none;labelBorderColor=none;fontColor=#000000;fontSize=8;" vertex="1" parent="1">
          <mxGeometry x="477" y="1190" width="60" height="10" as="geometry" />
        </mxCell>
        <mxCell id="oMiz9BfPfQwVCnKsYQ2V-50" value="5.0 Start Recovery Phase" style="triangle;whiteSpace=wrap;html=1;rounded=1;labelBackgroundColor=none;labelBorderColor=none;strokeColor=none;fontColor=#FFFFFF;fillColor=#730FC3;align=left;" vertex="1" parent="1">
          <mxGeometry x="542" y="1360" width="90" height="120" as="geometry" />
        </mxCell>
        <mxCell id="oMiz9BfPfQwVCnKsYQ2V-51" value="" style="edgeStyle=elbowEdgeStyle;rounded=0;jumpStyle=none;jumpSize=6;orthogonalLoop=1;jettySize=auto;html=1;strokeColor=#999999;strokeWidth=2;fontSize=8;fontColor=#000000;startArrow=none;startFill=0;endArrow=block;endFill=1;endSize=6;targetPerimeterSpacing=2;" edge="1" parent="1" source="oMiz9BfPfQwVCnKsYQ2V-69" target="oMiz9BfPfQwVCnKsYQ2V-62">
          <mxGeometry relative="1" as="geometry" />
        </mxCell>
        <mxCell id="oMiz9BfPfQwVCnKsYQ2V-52" value="2.15 Altered Priority?" style="rhombus;whiteSpace=wrap;html=1;rounded=1;labelBackgroundColor=none;labelBorderColor=none;strokeColor=none;fontColor=default;fillColor=#F7C325;" vertex="1" parent="1">
          <mxGeometry x="527" y="1490" width="120" height="80" as="geometry" />
        </mxCell>
        <mxCell id="oMiz9BfPfQwVCnKsYQ2V-53" value="" style="endArrow=block;html=1;entryX=0;entryY=0.5;entryDx=0;entryDy=0;edgeStyle=orthogonalEdgeStyle;strokeWidth=2;strokeColor=#999999;startArrow=none;endFill=1;targetPerimeterSpacing=2;sourcePerimeterSpacing=2;exitX=0.501;exitY=1.042;exitDx=0;exitDy=0;exitPerimeter=0;" edge="1" parent="1" source="oMiz9BfPfQwVCnKsYQ2V-46" target="oMiz9BfPfQwVCnKsYQ2V-52">
          <mxGeometry width="50" height="50" relative="1" as="geometry">
            <mxPoint x="427" y="1360" as="sourcePoint" />
            <mxPoint x="482" y="1010" as="targetPoint" />
            <Array as="points">
              <mxPoint x="427" y="1530" />
            </Array>
          </mxGeometry>
        </mxCell>
        <mxCell id="oMiz9BfPfQwVCnKsYQ2V-54" value="" style="endArrow=block;html=1;entryX=1.024;entryY=0.516;entryDx=0;entryDy=0;edgeStyle=orthogonalEdgeStyle;strokeWidth=2;strokeColor=#999999;startArrow=none;endFill=1;targetPerimeterSpacing=2;exitX=0.5;exitY=0;exitDx=0;exitDy=0;entryPerimeter=0;" edge="1" parent="1" source="oMiz9BfPfQwVCnKsYQ2V-58" target="oMiz9BfPfQwVCnKsYQ2V-32">
          <mxGeometry width="50" height="50" relative="1" as="geometry">
            <mxPoint x="437.12" y="1352.52" as="sourcePoint" />
            <mxPoint x="537" y="1540" as="targetPoint" />
            <Array as="points">
              <mxPoint x="687" y="1100" />
              <mxPoint x="320" y="1100" />
            </Array>
          </mxGeometry>
        </mxCell>
        <mxCell id="oMiz9BfPfQwVCnKsYQ2V-55" value="" style="endArrow=block;html=1;entryX=0.5;entryY=0;entryDx=0;entryDy=0;edgeStyle=orthogonalEdgeStyle;strokeWidth=2;strokeColor=#D3455B;startArrow=none;endFill=1;targetPerimeterSpacing=2;exitX=0.5;exitY=0;exitDx=0;exitDy=0;" edge="1" parent="1" source="oMiz9BfPfQwVCnKsYQ2V-56" target="oMiz9BfPfQwVCnKsYQ2V-41">
          <mxGeometry width="50" height="50" relative="1" as="geometry">
            <mxPoint x="657" y="1540" as="sourcePoint" />
            <mxPoint x="329.88" y="1110.96" as="targetPoint" />
            <Array as="points">
              <mxPoint x="667" y="1130" />
              <mxPoint x="427" y="1130" />
            </Array>
          </mxGeometry>
        </mxCell>
        <mxCell id="oMiz9BfPfQwVCnKsYQ2V-56" value="No" style="text;html=1;strokeColor=none;fillColor=none;align=center;verticalAlign=middle;whiteSpace=wrap;rounded=0;labelBackgroundColor=none;labelBorderColor=none;fontColor=#000000;fontSize=8;" vertex="1" parent="1">
          <mxGeometry x="637" y="1250" width="60" height="10" as="geometry" />
        </mxCell>
        <mxCell id="oMiz9BfPfQwVCnKsYQ2V-57" value="" style="endArrow=none;html=1;edgeStyle=orthogonalEdgeStyle;strokeWidth=2;strokeColor=#D3455B;startArrow=none;endFill=1;sourcePerimeterSpacing=2;exitX=1;exitY=0.5;exitDx=0;exitDy=0;" edge="1" parent="1" source="oMiz9BfPfQwVCnKsYQ2V-45">
          <mxGeometry width="50" height="50" relative="1" as="geometry">
            <mxPoint x="647" y="1310" as="sourcePoint" />
            <mxPoint x="667" y="1260" as="targetPoint" />
            <Array as="points">
              <mxPoint x="667" y="1310" />
            </Array>
          </mxGeometry>
        </mxCell>
        <mxCell id="oMiz9BfPfQwVCnKsYQ2V-58" value="Yes" style="text;html=1;strokeColor=none;fillColor=none;align=center;verticalAlign=middle;whiteSpace=wrap;rounded=0;labelBackgroundColor=none;labelBorderColor=none;fontColor=#000000;fontSize=8;" vertex="1" parent="1">
          <mxGeometry x="657" y="1460" width="60" height="10" as="geometry" />
        </mxCell>
        <mxCell id="oMiz9BfPfQwVCnKsYQ2V-59" value="" style="endArrow=none;html=1;edgeStyle=orthogonalEdgeStyle;strokeWidth=2;strokeColor=#999999;startArrow=none;endFill=1;sourcePerimeterSpacing=2;exitX=1;exitY=0.5;exitDx=0;exitDy=0;" edge="1" parent="1" source="oMiz9BfPfQwVCnKsYQ2V-52">
          <mxGeometry width="50" height="50" relative="1" as="geometry">
            <mxPoint x="647" y="1530" as="sourcePoint" />
            <mxPoint x="687" y="1470" as="targetPoint" />
            <Array as="points">
              <mxPoint x="687" y="1530" />
            </Array>
          </mxGeometry>
        </mxCell>
        <mxCell id="oMiz9BfPfQwVCnKsYQ2V-60" value="" style="edgeStyle=elbowEdgeStyle;rounded=0;jumpStyle=none;jumpSize=6;orthogonalLoop=1;jettySize=auto;html=1;strokeColor=#D3455B;strokeWidth=2;fontSize=8;fontColor=#000000;startArrow=none;startFill=0;endArrow=block;endFill=1;endSize=6;sourcePerimeterSpacing=2;targetPerimeterSpacing=2;" edge="1" parent="1" source="oMiz9BfPfQwVCnKsYQ2V-62" target="oMiz9BfPfQwVCnKsYQ2V-63">
          <mxGeometry relative="1" as="geometry" />
        </mxCell>
        <mxCell id="oMiz9BfPfQwVCnKsYQ2V-61" value="" style="edgeStyle=elbowEdgeStyle;rounded=0;jumpStyle=none;jumpSize=6;orthogonalLoop=1;jettySize=auto;html=1;strokeColor=#1AAE9F;strokeWidth=2;fontSize=8;fontColor=#000000;startArrow=none;startFill=0;endArrow=block;endFill=1;endSize=6;targetPerimeterSpacing=2;entryX=0.5;entryY=0;entryDx=0;entryDy=0;" edge="1" parent="1" source="oMiz9BfPfQwVCnKsYQ2V-66" target="oMiz9BfPfQwVCnKsYQ2V-65">
          <mxGeometry relative="1" as="geometry" />
        </mxCell>
        <mxCell id="oMiz9BfPfQwVCnKsYQ2V-62" value="2.16 Automated Containment?" style="rhombus;whiteSpace=wrap;html=1;rounded=1;labelBackgroundColor=none;labelBorderColor=none;strokeColor=none;fontColor=default;fillColor=#F7C325;" vertex="1" parent="1">
          <mxGeometry x="527" y="1610" width="120" height="80" as="geometry" />
        </mxCell>
        <mxCell id="oMiz9BfPfQwVCnKsYQ2V-63" value="3.0 Start Containment Phase" style="triangle;whiteSpace=wrap;html=1;rounded=1;labelBackgroundColor=none;labelBorderColor=none;strokeColor=none;fontColor=#FFFFFF;fillColor=#E8833A;align=left;" vertex="1" parent="1">
          <mxGeometry x="697" y="1590" width="90" height="120" as="geometry" />
        </mxCell>
        <mxCell id="oMiz9BfPfQwVCnKsYQ2V-64" value="No" style="text;html=1;strokeColor=none;fillColor=none;align=center;verticalAlign=middle;whiteSpace=wrap;rounded=0;labelBackgroundColor=none;labelBorderColor=none;fontColor=#000000;fontSize=8;" vertex="1" parent="1">
          <mxGeometry x="637" y="1640" width="60" height="10" as="geometry" />
        </mxCell>
        <mxCell id="oMiz9BfPfQwVCnKsYQ2V-65" value="4.0 Start Eradication Phase" style="triangle;whiteSpace=wrap;html=1;rounded=1;labelBackgroundColor=none;labelBorderColor=none;strokeColor=none;fontColor=#FFFFFF;fillColor=#D3455B;align=left;" vertex="1" parent="1">
          <mxGeometry x="542" y="1700" width="90" height="120" as="geometry" />
        </mxCell>
        <mxCell id="oMiz9BfPfQwVCnKsYQ2V-66" value="Yes" style="text;html=1;strokeColor=none;fillColor=none;align=center;verticalAlign=middle;whiteSpace=wrap;rounded=0;labelBackgroundColor=none;labelBorderColor=none;fontColor=#000000;fontSize=8;" vertex="1" parent="1">
          <mxGeometry x="557" y="1700" width="60" height="10" as="geometry" />
        </mxCell>
        <mxCell id="oMiz9BfPfQwVCnKsYQ2V-67" value="" style="edgeStyle=elbowEdgeStyle;rounded=0;jumpStyle=none;jumpSize=6;orthogonalLoop=1;jettySize=auto;html=1;strokeColor=#1AAE9F;strokeWidth=2;fontSize=8;fontColor=none;startArrow=none;startFill=0;endArrow=none;endFill=1;endSize=6;sourcePerimeterSpacing=2;noLabel=1;" edge="1" parent="1" source="oMiz9BfPfQwVCnKsYQ2V-62" target="oMiz9BfPfQwVCnKsYQ2V-66">
          <mxGeometry relative="1" as="geometry">
            <mxPoint x="587" y="1692" as="sourcePoint" />
            <mxPoint x="587" y="1729" as="targetPoint" />
          </mxGeometry>
        </mxCell>
        <mxCell id="oMiz9BfPfQwVCnKsYQ2V-68" value="" style="endArrow=block;html=1;entryX=0.504;entryY=0.23;entryDx=0;entryDy=0;edgeStyle=orthogonalEdgeStyle;strokeWidth=2;strokeColor=#D3455B;startArrow=none;endFill=1;targetPerimeterSpacing=2;exitX=1;exitY=0.5;exitDx=0;exitDy=0;entryPerimeter=0;" edge="1" parent="1" source="oMiz9BfPfQwVCnKsYQ2V-11" target="oMiz9BfPfQwVCnKsYQ2V-63">
          <mxGeometry width="50" height="50" relative="1" as="geometry">
            <mxPoint x="697" y="1470" as="sourcePoint" />
            <mxPoint x="329.8799999999999" y="1110.96" as="targetPoint" />
            <Array as="points">
              <mxPoint x="742" y="570" />
              <mxPoint x="742" y="1618" />
            </Array>
          </mxGeometry>
        </mxCell>
        <mxCell id="oMiz9BfPfQwVCnKsYQ2V-69" value="No" style="text;html=1;strokeColor=none;fillColor=none;align=center;verticalAlign=middle;whiteSpace=wrap;rounded=0;labelBackgroundColor=none;labelBorderColor=none;fontColor=#000000;fontSize=8;" vertex="1" parent="1">
          <mxGeometry x="557" y="1580" width="60" height="10" as="geometry" />
        </mxCell>
        <mxCell id="oMiz9BfPfQwVCnKsYQ2V-70" value="" style="edgeStyle=elbowEdgeStyle;rounded=0;jumpStyle=none;jumpSize=6;orthogonalLoop=1;jettySize=auto;html=1;strokeColor=#999999;strokeWidth=2;fontSize=8;fontColor=#000000;startArrow=none;startFill=0;endArrow=none;endFill=1;endSize=6;sourcePerimeterSpacing=2;" edge="1" parent="1" source="oMiz9BfPfQwVCnKsYQ2V-52" target="oMiz9BfPfQwVCnKsYQ2V-69">
          <mxGeometry relative="1" as="geometry">
            <mxPoint x="586.9832402234638" y="1571.9886466029914" as="sourcePoint" />
            <mxPoint x="586.9832402234638" y="1608.0113533970082" as="targetPoint" />
          </mxGeometry>
        </mxCell>
      </root>
    </mxGraphModel>
  </diagram>
  <diagram id="ynjyipuAl2YizngujhU8" name="Figure 4 Containment">
    <mxGraphModel dx="966" dy="1292" grid="1" gridSize="10" guides="1" tooltips="1" connect="1" arrows="1" fold="1" page="1" pageScale="1" pageWidth="827" pageHeight="1169" math="0" shadow="0">
      <root>
        <mxCell id="0" />
        <mxCell id="1" parent="0" />
        <mxCell id="upLuIhzX35SKcb8yMWU4-1" value="" style="edgeStyle=orthogonalEdgeStyle;orthogonalLoop=1;jettySize=auto;html=1;strokeColor=#999999;strokeWidth=2;fontColor=#FFFFFF;startArrow=none;startFill=0;endArrow=block;endFill=1;sourcePerimeterSpacing=2;targetPerimeterSpacing=2;" edge="1" parent="1" source="upLuIhzX35SKcb8yMWU4-2">
          <mxGeometry relative="1" as="geometry">
            <mxPoint x="240" y="195" as="targetPoint" />
          </mxGeometry>
        </mxCell>
        <mxCell id="upLuIhzX35SKcb8yMWU4-2" value="3.0 Start Containment Phase" style="triangle;whiteSpace=wrap;html=1;rounded=1;labelBackgroundColor=none;labelBorderColor=none;strokeColor=none;fontColor=#FFFFFF;fillColor=#E8833A;align=left;" vertex="1" parent="1">
          <mxGeometry x="86" y="135" width="90" height="120" as="geometry" />
        </mxCell>
        <mxCell id="upLuIhzX35SKcb8yMWU4-3" value="" style="edgeStyle=orthogonalEdgeStyle;rounded=1;orthogonalLoop=1;jettySize=auto;html=1;endArrow=block;strokeColor=#999999;fontColor=#FFFFFF;strokeWidth=2;startArrow=none;startFill=0;endFill=1;sourcePerimeterSpacing=2;targetPerimeterSpacing=2;" edge="1" parent="1" source="upLuIhzX35SKcb8yMWU4-4" target="upLuIhzX35SKcb8yMWU4-11">
          <mxGeometry relative="1" as="geometry" />
        </mxCell>
        <mxCell id="upLuIhzX35SKcb8yMWU4-4" value="3.1 Isolate" style="rounded=1;whiteSpace=wrap;html=1;strokeColor=none;fillColor=#E8833A;labelBackgroundColor=none;labelBorderColor=none;fontColor=#FFFFFF;" vertex="1" parent="1">
          <mxGeometry x="242" y="165" width="120" height="60" as="geometry" />
        </mxCell>
        <mxCell id="upLuIhzX35SKcb8yMWU4-5" value="No" style="text;html=1;strokeColor=none;fillColor=none;align=center;verticalAlign=middle;whiteSpace=wrap;rounded=0;labelBackgroundColor=none;labelBorderColor=none;fontColor=#000000;fontSize=8;" vertex="1" parent="1">
          <mxGeometry x="522" y="405" width="60" height="10" as="geometry" />
        </mxCell>
        <mxCell id="upLuIhzX35SKcb8yMWU4-6" value="" style="edgeStyle=orthogonalEdgeStyle;rounded=1;orthogonalLoop=1;jettySize=auto;html=1;endArrow=block;strokeColor=#999999;fontColor=#FFFFFF;strokeWidth=2;startArrow=none;startFill=0;endFill=1;sourcePerimeterSpacing=2;targetPerimeterSpacing=2;" edge="1" parent="1" source="upLuIhzX35SKcb8yMWU4-7" target="upLuIhzX35SKcb8yMWU4-16">
          <mxGeometry relative="1" as="geometry" />
        </mxCell>
        <mxCell id="upLuIhzX35SKcb8yMWU4-7" value="3.4&lt;br&gt;Additional Assets Affected?" style="rhombus;whiteSpace=wrap;html=1;rounded=1;labelBackgroundColor=none;labelBorderColor=none;strokeColor=none;fontColor=#FFFFFF;fillColor=#E8833A;" vertex="1" parent="1">
          <mxGeometry x="412" y="375" width="120" height="80" as="geometry" />
        </mxCell>
        <mxCell id="upLuIhzX35SKcb8yMWU4-8" value="" style="edgeStyle=orthogonalEdgeStyle;rounded=1;orthogonalLoop=1;jettySize=auto;html=1;endArrow=block;strokeColor=#999999;fontColor=#FFFFFF;strokeWidth=2;startArrow=none;startFill=0;endFill=1;sourcePerimeterSpacing=2;targetPerimeterSpacing=2;" edge="1" parent="1" source="upLuIhzX35SKcb8yMWU4-9" target="upLuIhzX35SKcb8yMWU4-18">
          <mxGeometry relative="1" as="geometry" />
        </mxCell>
        <mxCell id="upLuIhzX35SKcb8yMWU4-9" value="3.6 Activate Data Breach/Data Loss Playbook" style="shape=parallelogram;perimeter=parallelogramPerimeter;whiteSpace=wrap;html=1;fixedSize=1;rounded=1;labelBackgroundColor=none;labelBorderColor=none;strokeColor=none;fontSize=12;fontColor=#FFFFFF;fillColor=#E8833A;" vertex="1" parent="1">
          <mxGeometry x="572" y="495" width="120" height="60" as="geometry" />
        </mxCell>
        <mxCell id="upLuIhzX35SKcb8yMWU4-10" value="" style="edgeStyle=orthogonalEdgeStyle;rounded=1;orthogonalLoop=1;jettySize=auto;html=1;endArrow=block;strokeColor=#999999;fontColor=#FFFFFF;strokeWidth=2;startArrow=none;startFill=0;endFill=1;sourcePerimeterSpacing=2;targetPerimeterSpacing=2;" edge="1" parent="1" source="upLuIhzX35SKcb8yMWU4-11" target="upLuIhzX35SKcb8yMWU4-14">
          <mxGeometry relative="1" as="geometry" />
        </mxCell>
        <mxCell id="upLuIhzX35SKcb8yMWU4-11" value="3.2 Preserve Digital Forensics Evidence" style="rounded=1;whiteSpace=wrap;html=1;strokeColor=none;fillColor=#E8833A;labelBackgroundColor=none;labelBorderColor=none;fontColor=#FFFFFF;" vertex="1" parent="1">
          <mxGeometry x="242" y="270" width="120" height="60" as="geometry" />
        </mxCell>
        <mxCell id="upLuIhzX35SKcb8yMWU4-12" value="4.0 Start Eradication Phase" style="triangle;whiteSpace=wrap;html=1;rounded=1;labelBackgroundColor=none;labelBorderColor=none;strokeColor=none;fontColor=#FFFFFF;fillColor=#D3455B;align=left;" vertex="1" parent="1">
          <mxGeometry x="592" y="915" width="90" height="120" as="geometry" />
        </mxCell>
        <mxCell id="upLuIhzX35SKcb8yMWU4-13" value="" style="edgeStyle=orthogonalEdgeStyle;rounded=1;orthogonalLoop=1;jettySize=auto;html=1;endArrow=block;strokeColor=#999999;fontColor=#FFFFFF;strokeWidth=2;startArrow=none;startFill=0;endFill=1;sourcePerimeterSpacing=2;targetPerimeterSpacing=2;" edge="1" parent="1" source="upLuIhzX35SKcb8yMWU4-14" target="upLuIhzX35SKcb8yMWU4-7">
          <mxGeometry relative="1" as="geometry" />
        </mxCell>
        <mxCell id="upLuIhzX35SKcb8yMWU4-14" value="3.3 Continue Investigation" style="rounded=1;whiteSpace=wrap;html=1;strokeColor=none;fillColor=#E8833A;labelBackgroundColor=none;labelBorderColor=none;fontColor=#FFFFFF;" vertex="1" parent="1">
          <mxGeometry x="242" y="385" width="120" height="60" as="geometry" />
        </mxCell>
        <mxCell id="upLuIhzX35SKcb8yMWU4-15" value="" style="edgeStyle=orthogonalEdgeStyle;rounded=1;orthogonalLoop=1;jettySize=auto;html=1;endArrow=block;strokeColor=#999999;fontColor=#FFFFFF;strokeWidth=2;startArrow=none;startFill=0;endFill=1;targetPerimeterSpacing=2;" edge="1" parent="1" source="upLuIhzX35SKcb8yMWU4-33" target="upLuIhzX35SKcb8yMWU4-9">
          <mxGeometry relative="1" as="geometry" />
        </mxCell>
        <mxCell id="upLuIhzX35SKcb8yMWU4-16" value="3.5 Data &lt;br&gt;Exfiltration &lt;br&gt;Occured?" style="rhombus;whiteSpace=wrap;html=1;rounded=1;labelBackgroundColor=none;labelBorderColor=none;strokeColor=none;fontColor=#FFFFFF;fillColor=#E8833A;" vertex="1" parent="1">
          <mxGeometry x="572" y="375" width="120" height="80" as="geometry" />
        </mxCell>
        <mxCell id="upLuIhzX35SKcb8yMWU4-17" value="" style="edgeStyle=orthogonalEdgeStyle;rounded=1;orthogonalLoop=1;jettySize=auto;html=1;endArrow=block;strokeColor=#D3455B;fontColor=#FFFFFF;strokeWidth=2;startArrow=none;startFill=0;endFill=1;targetPerimeterSpacing=2;" edge="1" parent="1" source="upLuIhzX35SKcb8yMWU4-41" target="upLuIhzX35SKcb8yMWU4-21">
          <mxGeometry relative="1" as="geometry" />
        </mxCell>
        <mxCell id="upLuIhzX35SKcb8yMWU4-18" value="3.7 &lt;br&gt;Playbook ran Successfully" style="rhombus;whiteSpace=wrap;html=1;rounded=1;labelBackgroundColor=none;labelBorderColor=none;strokeColor=none;fontColor=#FFFFFF;fillColor=#E8833A;" vertex="1" parent="1">
          <mxGeometry x="572" y="595" width="120" height="80" as="geometry" />
        </mxCell>
        <mxCell id="upLuIhzX35SKcb8yMWU4-19" value="" style="edgeStyle=orthogonalEdgeStyle;rounded=1;orthogonalLoop=1;jettySize=auto;html=1;endArrow=block;strokeColor=#D3455B;fontColor=#FFFFFF;strokeWidth=2;startArrow=none;startFill=0;endFill=1;sourcePerimeterSpacing=2;targetPerimeterSpacing=2;entryX=1;entryY=0.512;entryDx=0;entryDy=0;entryPerimeter=0;exitX=0;exitY=0.5;exitDx=0;exitDy=0;" edge="1" parent="1" source="upLuIhzX35SKcb8yMWU4-21" target="upLuIhzX35SKcb8yMWU4-22">
          <mxGeometry relative="1" as="geometry" />
        </mxCell>
        <mxCell id="upLuIhzX35SKcb8yMWU4-20" value="" style="edgeStyle=orthogonalEdgeStyle;rounded=1;orthogonalLoop=1;jettySize=auto;html=1;endArrow=block;strokeColor=#999999;fontColor=#FFFFFF;strokeWidth=2;startArrow=none;startFill=0;endFill=1;targetPerimeterSpacing=2;" edge="1" parent="1" source="upLuIhzX35SKcb8yMWU4-39" target="upLuIhzX35SKcb8yMWU4-27">
          <mxGeometry relative="1" as="geometry" />
        </mxCell>
        <mxCell id="upLuIhzX35SKcb8yMWU4-21" value="3.9 &lt;br&gt;Engage External Support" style="rhombus;whiteSpace=wrap;html=1;rounded=1;labelBackgroundColor=none;labelBorderColor=none;strokeColor=none;fontColor=#FFFFFF;fillColor=#E8833A;" vertex="1" parent="1">
          <mxGeometry x="572" y="715" width="120" height="80" as="geometry" />
        </mxCell>
        <mxCell id="upLuIhzX35SKcb8yMWU4-22" value="3.8 &lt;br&gt;Confident the &lt;br&gt;Incident is Contained?" style="rhombus;whiteSpace=wrap;html=1;rounded=1;labelBackgroundColor=none;labelBorderColor=none;strokeColor=none;fontColor=#FFFFFF;fillColor=#E8833A;" vertex="1" parent="1">
          <mxGeometry x="412" y="714" width="120" height="80" as="geometry" />
        </mxCell>
        <mxCell id="upLuIhzX35SKcb8yMWU4-23" value="" style="endArrow=block;html=1;rounded=1;entryX=0.5;entryY=0;entryDx=0;entryDy=0;exitX=0;exitY=0.5;exitDx=0;exitDy=0;strokeColor=#1AAE9F;fontColor=#FFFFFF;strokeWidth=2;startArrow=none;startFill=0;endFill=1;sourcePerimeterSpacing=2;targetPerimeterSpacing=2;edgeStyle=orthogonalEdgeStyle;" edge="1" parent="1" source="upLuIhzX35SKcb8yMWU4-18" target="upLuIhzX35SKcb8yMWU4-22">
          <mxGeometry width="50" height="50" relative="1" as="geometry">
            <mxPoint x="402" y="825" as="sourcePoint" />
            <mxPoint x="452" y="775" as="targetPoint" />
          </mxGeometry>
        </mxCell>
        <mxCell id="upLuIhzX35SKcb8yMWU4-24" value="" style="endArrow=block;html=1;rounded=1;entryX=1.011;entryY=0.497;entryDx=0;entryDy=0;exitX=0.5;exitY=0;exitDx=0;exitDy=0;strokeColor=#D3455B;fontColor=#FFFFFF;strokeWidth=2;startArrow=none;startFill=0;endFill=1;sourcePerimeterSpacing=2;targetPerimeterSpacing=2;edgeStyle=orthogonalEdgeStyle;entryPerimeter=0;" edge="1" parent="1" source="upLuIhzX35SKcb8yMWU4-7" target="upLuIhzX35SKcb8yMWU4-4">
          <mxGeometry width="50" height="50" relative="1" as="geometry">
            <mxPoint x="582" y="645" as="sourcePoint" />
            <mxPoint x="482" y="723.9999999999995" as="targetPoint" />
            <Array as="points">
              <mxPoint x="472" y="195" />
              <mxPoint x="363" y="195" />
            </Array>
          </mxGeometry>
        </mxCell>
        <mxCell id="upLuIhzX35SKcb8yMWU4-25" value="" style="endArrow=block;html=1;rounded=1;entryX=0.501;entryY=1.031;entryDx=0;entryDy=0;exitX=0;exitY=0.5;exitDx=0;exitDy=0;strokeColor=#999999;fontColor=#FFFFFF;strokeWidth=2;startArrow=none;startFill=0;endFill=1;sourcePerimeterSpacing=2;targetPerimeterSpacing=2;edgeStyle=orthogonalEdgeStyle;entryPerimeter=0;" edge="1" parent="1" source="upLuIhzX35SKcb8yMWU4-22" target="upLuIhzX35SKcb8yMWU4-14">
          <mxGeometry width="50" height="50" relative="1" as="geometry">
            <mxPoint x="402" y="545" as="sourcePoint" />
            <mxPoint x="302" y="624" as="targetPoint" />
          </mxGeometry>
        </mxCell>
        <mxCell id="upLuIhzX35SKcb8yMWU4-26" value="" style="edgeStyle=orthogonalEdgeStyle;rounded=1;orthogonalLoop=1;jettySize=auto;html=1;entryX=0.449;entryY=0.207;entryDx=0;entryDy=0;entryPerimeter=0;endArrow=block;strokeColor=#999999;fontColor=#FFFFFF;strokeWidth=2;startArrow=none;startFill=0;endFill=1;sourcePerimeterSpacing=2;targetPerimeterSpacing=2;" edge="1" parent="1" source="upLuIhzX35SKcb8yMWU4-27" target="upLuIhzX35SKcb8yMWU4-12">
          <mxGeometry relative="1" as="geometry" />
        </mxCell>
        <mxCell id="upLuIhzX35SKcb8yMWU4-27" value="3.10 &lt;br&gt;External Support Activities" style="shape=parallelogram;perimeter=parallelogramPerimeter;whiteSpace=wrap;html=1;fixedSize=1;rounded=1;labelBackgroundColor=none;labelBorderColor=none;strokeColor=none;fontSize=12;fontColor=#FFFFFF;fillColor=#E8833A;" vertex="1" parent="1">
          <mxGeometry x="572" y="835" width="120" height="60" as="geometry" />
        </mxCell>
        <mxCell id="upLuIhzX35SKcb8yMWU4-28" value="" style="endArrow=block;html=1;rounded=1;entryX=-0.018;entryY=0.502;entryDx=0;entryDy=0;strokeColor=#1AAE9F;fontColor=#FFFFFF;strokeWidth=2;startArrow=none;startFill=0;endFill=1;targetPerimeterSpacing=2;edgeStyle=orthogonalEdgeStyle;entryPerimeter=0;" edge="1" parent="1" source="upLuIhzX35SKcb8yMWU4-37" target="upLuIhzX35SKcb8yMWU4-12">
          <mxGeometry width="50" height="50" relative="1" as="geometry">
            <mxPoint x="472" y="795" as="sourcePoint" />
            <mxPoint x="482" y="724" as="targetPoint" />
            <Array as="points">
              <mxPoint x="472" y="975" />
              <mxPoint x="590" y="975" />
            </Array>
          </mxGeometry>
        </mxCell>
        <mxCell id="upLuIhzX35SKcb8yMWU4-29" value="" style="endArrow=block;html=1;rounded=1;entryX=1;entryY=0.5;entryDx=0;entryDy=0;exitX=0.5;exitY=1;exitDx=0;exitDy=0;strokeColor=#999999;fontColor=#FFFFFF;strokeWidth=2;startArrow=none;startFill=0;endFill=1;targetPerimeterSpacing=2;edgeStyle=orthogonalEdgeStyle;" edge="1" parent="1" source="upLuIhzX35SKcb8yMWU4-31" target="upLuIhzX35SKcb8yMWU4-21">
          <mxGeometry width="50" height="50" relative="1" as="geometry">
            <mxPoint x="582" y="645" as="sourcePoint" />
            <mxPoint x="482" y="724" as="targetPoint" />
            <Array as="points">
              <mxPoint x="712" y="754" />
            </Array>
          </mxGeometry>
        </mxCell>
        <mxCell id="upLuIhzX35SKcb8yMWU4-30" value="Yes" style="text;html=1;strokeColor=none;fillColor=none;align=center;verticalAlign=middle;whiteSpace=wrap;rounded=0;labelBackgroundColor=none;labelBorderColor=none;fontColor=#000000;fontSize=8;" vertex="1" parent="1">
          <mxGeometry x="392" y="185" width="60" height="10" as="geometry" />
        </mxCell>
        <mxCell id="upLuIhzX35SKcb8yMWU4-31" value="Uncertain/No" style="text;html=1;strokeColor=none;fillColor=none;align=center;verticalAlign=middle;whiteSpace=wrap;rounded=0;labelBackgroundColor=none;labelBorderColor=none;fontColor=#000000;fontSize=8;" vertex="1" parent="1">
          <mxGeometry x="682" y="465" width="60" height="10" as="geometry" />
        </mxCell>
        <mxCell id="upLuIhzX35SKcb8yMWU4-32" value="" style="endArrow=none;html=1;rounded=1;entryX=0.5;entryY=0;entryDx=0;entryDy=0;exitX=0.98;exitY=0.506;exitDx=0;exitDy=0;strokeColor=#999999;fontColor=#FFFFFF;strokeWidth=2;startArrow=none;startFill=0;endFill=1;sourcePerimeterSpacing=2;edgeStyle=orthogonalEdgeStyle;exitPerimeter=0;" edge="1" parent="1" source="upLuIhzX35SKcb8yMWU4-16" target="upLuIhzX35SKcb8yMWU4-31">
          <mxGeometry width="50" height="50" relative="1" as="geometry">
            <mxPoint x="689.5999999999999" y="415.48" as="sourcePoint" />
            <mxPoint x="692" y="754" as="targetPoint" />
            <Array as="points">
              <mxPoint x="712" y="415" />
            </Array>
          </mxGeometry>
        </mxCell>
        <mxCell id="upLuIhzX35SKcb8yMWU4-33" value="Yes" style="text;html=1;strokeColor=none;fillColor=none;align=center;verticalAlign=middle;whiteSpace=wrap;rounded=0;labelBackgroundColor=none;labelBorderColor=none;fontColor=#000000;fontSize=8;" vertex="1" parent="1">
          <mxGeometry x="602" y="465" width="60" height="10" as="geometry" />
        </mxCell>
        <mxCell id="upLuIhzX35SKcb8yMWU4-34" value="" style="endArrow=none;html=1;rounded=0;entryX=0.5;entryY=0;entryDx=0;entryDy=0;exitX=0.5;exitY=1;exitDx=0;exitDy=0;strokeColor=#999999;strokeWidth=2;" edge="1" parent="1" source="upLuIhzX35SKcb8yMWU4-16" target="upLuIhzX35SKcb8yMWU4-33">
          <mxGeometry width="50" height="50" relative="1" as="geometry">
            <mxPoint x="632" y="625" as="sourcePoint" />
            <mxPoint x="682" y="575" as="targetPoint" />
          </mxGeometry>
        </mxCell>
        <mxCell id="upLuIhzX35SKcb8yMWU4-35" value="Yes" style="text;html=1;strokeColor=none;fillColor=none;align=center;verticalAlign=middle;whiteSpace=wrap;rounded=0;labelBackgroundColor=none;labelBorderColor=none;fontColor=#000000;fontSize=8;" vertex="1" parent="1">
          <mxGeometry x="502" y="625" width="60" height="10" as="geometry" />
        </mxCell>
        <mxCell id="upLuIhzX35SKcb8yMWU4-36" value="No" style="text;html=1;strokeColor=none;fillColor=none;align=center;verticalAlign=middle;whiteSpace=wrap;rounded=0;labelBackgroundColor=none;labelBorderColor=none;fontColor=#000000;fontSize=8;" vertex="1" parent="1">
          <mxGeometry x="532" y="745" width="60" height="10" as="geometry" />
        </mxCell>
        <mxCell id="upLuIhzX35SKcb8yMWU4-37" value="Yes" style="text;html=1;strokeColor=none;fillColor=none;align=center;verticalAlign=middle;whiteSpace=wrap;rounded=0;labelBackgroundColor=none;labelBorderColor=none;fontColor=#000000;fontSize=8;" vertex="1" parent="1">
          <mxGeometry x="442" y="805" width="60" height="10" as="geometry" />
        </mxCell>
        <mxCell id="upLuIhzX35SKcb8yMWU4-38" value="" style="endArrow=none;html=1;rounded=1;entryX=0.5;entryY=0;entryDx=0;entryDy=0;strokeColor=#1AAE9F;fontColor=#FFFFFF;strokeWidth=2;startArrow=none;startFill=0;endFill=1;sourcePerimeterSpacing=2;edgeStyle=orthogonalEdgeStyle;" edge="1" parent="1" target="upLuIhzX35SKcb8yMWU4-37">
          <mxGeometry width="50" height="50" relative="1" as="geometry">
            <mxPoint x="472" y="795" as="sourcePoint" />
            <mxPoint x="590.3800000000001" y="965.2399999999998" as="targetPoint" />
            <Array as="points" />
          </mxGeometry>
        </mxCell>
        <mxCell id="upLuIhzX35SKcb8yMWU4-39" value="Yes" style="text;html=1;strokeColor=none;fillColor=none;align=center;verticalAlign=middle;whiteSpace=wrap;rounded=0;labelBackgroundColor=none;labelBorderColor=none;fontColor=#000000;fontSize=8;" vertex="1" parent="1">
          <mxGeometry x="602" y="805" width="60" height="10" as="geometry" />
        </mxCell>
        <mxCell id="upLuIhzX35SKcb8yMWU4-40" value="" style="endArrow=none;html=1;rounded=0;strokeColor=#999999;strokeWidth=2;exitX=0.5;exitY=0;exitDx=0;exitDy=0;" edge="1" parent="1" source="upLuIhzX35SKcb8yMWU4-39">
          <mxGeometry width="50" height="50" relative="1" as="geometry">
            <mxPoint x="592" y="835" as="sourcePoint" />
            <mxPoint x="632" y="795" as="targetPoint" />
          </mxGeometry>
        </mxCell>
        <mxCell id="upLuIhzX35SKcb8yMWU4-41" value="No" style="text;html=1;strokeColor=none;fillColor=none;align=center;verticalAlign=middle;whiteSpace=wrap;rounded=0;labelBackgroundColor=none;labelBorderColor=none;fontColor=#000000;fontSize=8;" vertex="1" parent="1">
          <mxGeometry x="602" y="685" width="60" height="10" as="geometry" />
        </mxCell>
        <mxCell id="upLuIhzX35SKcb8yMWU4-42" value="" style="endArrow=none;html=1;rounded=0;strokeColor=#D3455B;strokeWidth=2;entryX=0.5;entryY=1;entryDx=0;entryDy=0;exitX=0.5;exitY=0;exitDx=0;exitDy=0;" edge="1" parent="1" source="upLuIhzX35SKcb8yMWU4-41" target="upLuIhzX35SKcb8yMWU4-18">
          <mxGeometry width="50" height="50" relative="1" as="geometry">
            <mxPoint x="612" y="735" as="sourcePoint" />
            <mxPoint x="662" y="685" as="targetPoint" />
          </mxGeometry>
        </mxCell>
      </root>
    </mxGraphModel>
  </diagram>
  <diagram id="_o0EpCnDwgP9dmqqfpMZ" name="Figure 5 Eradication">
    <mxGraphModel dx="966" dy="1292" grid="1" gridSize="10" guides="1" tooltips="1" connect="1" arrows="1" fold="1" page="1" pageScale="1" pageWidth="827" pageHeight="1169" math="0" shadow="0">
      <root>
        <mxCell id="0" />
        <mxCell id="1" parent="0" />
        <mxCell id="0t48tQoUNAOdHy4xZGus-1" value="" style="edgeStyle=orthogonalEdgeStyle;orthogonalLoop=1;jettySize=auto;html=1;strokeColor=#999999;strokeWidth=2;fontColor=#FFFFFF;startArrow=none;startFill=0;endArrow=block;endFill=1;sourcePerimeterSpacing=2;targetPerimeterSpacing=2;" edge="1" parent="1">
          <mxGeometry relative="1" as="geometry">
            <mxPoint x="265" y="260" as="targetPoint" />
            <mxPoint x="203" y="260" as="sourcePoint" />
          </mxGeometry>
        </mxCell>
        <mxCell id="0t48tQoUNAOdHy4xZGus-2" value="" style="edgeStyle=orthogonalEdgeStyle;rounded=1;orthogonalLoop=1;jettySize=auto;html=1;endArrow=block;strokeColor=#999999;fontColor=#FFFFFF;strokeWidth=2;startArrow=none;startFill=0;endFill=1;sourcePerimeterSpacing=2;targetPerimeterSpacing=2;" edge="1" parent="1" source="0t48tQoUNAOdHy4xZGus-3" target="0t48tQoUNAOdHy4xZGus-9">
          <mxGeometry relative="1" as="geometry" />
        </mxCell>
        <mxCell id="0t48tQoUNAOdHy4xZGus-3" value="4.1 Deny Attacker Access" style="rounded=1;whiteSpace=wrap;html=1;strokeColor=none;fillColor=#D3455B;labelBackgroundColor=none;labelBorderColor=none;fontColor=#FFFFFF;" vertex="1" parent="1">
          <mxGeometry x="267" y="230" width="120" height="60" as="geometry" />
        </mxCell>
        <mxCell id="0t48tQoUNAOdHy4xZGus-4" value="No" style="text;html=1;strokeColor=none;fillColor=none;align=center;verticalAlign=middle;whiteSpace=wrap;rounded=0;labelBackgroundColor=none;labelBorderColor=none;fontColor=#000000;fontSize=8;" vertex="1" parent="1">
          <mxGeometry x="577" y="580" width="60" height="10" as="geometry" />
        </mxCell>
        <mxCell id="0t48tQoUNAOdHy4xZGus-5" value="" style="edgeStyle=orthogonalEdgeStyle;rounded=1;orthogonalLoop=1;jettySize=auto;html=1;endArrow=block;strokeColor=#999999;fontColor=#FFFFFF;strokeWidth=2;startArrow=none;startFill=0;endFill=1;sourcePerimeterSpacing=2;targetPerimeterSpacing=2;entryX=0.501;entryY=-0.022;entryDx=0;entryDy=0;entryPerimeter=0;" edge="1" parent="1" source="0t48tQoUNAOdHy4xZGus-7" target="0t48tQoUNAOdHy4xZGus-23">
          <mxGeometry relative="1" as="geometry">
            <mxPoint x="657" y="522" as="targetPoint" />
          </mxGeometry>
        </mxCell>
        <mxCell id="0t48tQoUNAOdHy4xZGus-6" value="" style="edgeStyle=orthogonalEdgeStyle;rounded=1;orthogonalLoop=1;jettySize=auto;html=1;strokeColor=#999999;strokeWidth=2;fontSize=11;endArrow=block;endFill=1;fontColor=#FFFFFF;startArrow=none;startFill=0;targetPerimeterSpacing=2;" edge="1" parent="1" source="0t48tQoUNAOdHy4xZGus-25" target="0t48tQoUNAOdHy4xZGus-22">
          <mxGeometry relative="1" as="geometry" />
        </mxCell>
        <mxCell id="0t48tQoUNAOdHy4xZGus-7" value="4.6 Rebuild Functional &lt;br&gt;Assets?" style="rhombus;whiteSpace=wrap;html=1;rounded=1;labelBackgroundColor=none;labelBorderColor=none;strokeColor=none;fontColor=#FFFFFF;fillColor=#D3455B;" vertex="1" parent="1">
          <mxGeometry x="437" y="550" width="120" height="80" as="geometry" />
        </mxCell>
        <mxCell id="0t48tQoUNAOdHy4xZGus-8" value="" style="edgeStyle=orthogonalEdgeStyle;rounded=1;orthogonalLoop=1;jettySize=auto;html=1;endArrow=block;strokeColor=#999999;fontColor=#FFFFFF;strokeWidth=2;startArrow=none;startFill=0;endFill=1;sourcePerimeterSpacing=2;targetPerimeterSpacing=2;" edge="1" parent="1" source="0t48tQoUNAOdHy4xZGus-9" target="0t48tQoUNAOdHy4xZGus-12">
          <mxGeometry relative="1" as="geometry" />
        </mxCell>
        <mxCell id="0t48tQoUNAOdHy4xZGus-9" value="4.2 Disable Accounts/Reset Credentials" style="rounded=1;whiteSpace=wrap;html=1;strokeColor=none;fillColor=#D3455B;labelBackgroundColor=none;labelBorderColor=none;fontColor=#FFFFFF;" vertex="1" parent="1">
          <mxGeometry x="267" y="335" width="120" height="60" as="geometry" />
        </mxCell>
        <mxCell id="0t48tQoUNAOdHy4xZGus-10" value="5.0 Start Recovery Phase" style="triangle;whiteSpace=wrap;html=1;rounded=1;labelBackgroundColor=none;labelBorderColor=none;strokeColor=none;fontColor=#FFFFFF;fillColor=#730FC3;align=left;" vertex="1" parent="1">
          <mxGeometry x="617" y="850" width="90" height="120" as="geometry" />
        </mxCell>
        <mxCell id="0t48tQoUNAOdHy4xZGus-11" value="" style="edgeStyle=orthogonalEdgeStyle;rounded=1;orthogonalLoop=1;jettySize=auto;html=1;strokeColor=#999999;strokeWidth=2;endArrow=block;endFill=1;fontColor=#FFFFFF;startArrow=none;startFill=0;sourcePerimeterSpacing=2;targetPerimeterSpacing=2;" edge="1" parent="1" source="0t48tQoUNAOdHy4xZGus-12" target="0t48tQoUNAOdHy4xZGus-19">
          <mxGeometry relative="1" as="geometry" />
        </mxCell>
        <mxCell id="0t48tQoUNAOdHy4xZGus-12" value="4.4 Determine, Store, and Apply Relevant IOCs" style="rounded=1;whiteSpace=wrap;html=1;strokeColor=none;fillColor=#D3455B;labelBackgroundColor=none;labelBorderColor=none;fontColor=#FFFFFF;" vertex="1" parent="1">
          <mxGeometry x="267" y="450" width="120" height="60" as="geometry" />
        </mxCell>
        <mxCell id="0t48tQoUNAOdHy4xZGus-13" value="" style="endArrow=block;html=1;rounded=1;entryX=0.499;entryY=-0.016;entryDx=0;entryDy=0;strokeColor=#999999;fontColor=#FFFFFF;strokeWidth=2;startArrow=none;startFill=0;endFill=1;sourcePerimeterSpacing=2;targetPerimeterSpacing=2;edgeStyle=orthogonalEdgeStyle;entryPerimeter=0;exitX=1.009;exitY=0.493;exitDx=0;exitDy=0;exitPerimeter=0;" edge="1" parent="1" source="0t48tQoUNAOdHy4xZGus-3" target="0t48tQoUNAOdHy4xZGus-17">
          <mxGeometry width="50" height="50" relative="1" as="geometry">
            <mxPoint x="387" y="260" as="sourcePoint" />
            <mxPoint x="327" y="689" as="targetPoint" />
            <Array as="points">
              <mxPoint x="497" y="260" />
            </Array>
          </mxGeometry>
        </mxCell>
        <mxCell id="0t48tQoUNAOdHy4xZGus-14" value="" style="endArrow=block;html=1;rounded=1;entryX=-0.018;entryY=0.502;entryDx=0;entryDy=0;strokeColor=#999999;fontColor=#FFFFFF;strokeWidth=2;startArrow=none;startFill=0;endFill=1;targetPerimeterSpacing=2;edgeStyle=orthogonalEdgeStyle;entryPerimeter=0;sourcePerimeterSpacing=2;" edge="1" parent="1" target="0t48tQoUNAOdHy4xZGus-10">
          <mxGeometry width="50" height="50" relative="1" as="geometry">
            <mxPoint x="497" y="840" as="sourcePoint" />
            <mxPoint x="507" y="789" as="targetPoint" />
            <Array as="points">
              <mxPoint x="497" y="910" />
              <mxPoint x="615" y="910" />
            </Array>
          </mxGeometry>
        </mxCell>
        <mxCell id="0t48tQoUNAOdHy4xZGus-15" value="" style="endArrow=block;html=1;rounded=1;exitX=0.497;exitY=1.037;exitDx=0;exitDy=0;strokeColor=#999999;fontColor=#FFFFFF;strokeWidth=2;startArrow=none;startFill=0;endFill=1;targetPerimeterSpacing=2;edgeStyle=orthogonalEdgeStyle;exitPerimeter=0;sourcePerimeterSpacing=2;" edge="1" parent="1" source="0t48tQoUNAOdHy4xZGus-23">
          <mxGeometry width="50" height="50" relative="1" as="geometry">
            <mxPoint x="607" y="710" as="sourcePoint" />
            <mxPoint x="557" y="810" as="targetPoint" />
            <Array as="points">
              <mxPoint x="657" y="810" />
              <mxPoint x="560" y="810" />
            </Array>
          </mxGeometry>
        </mxCell>
        <mxCell id="0t48tQoUNAOdHy4xZGus-16" value="4.0 Start Eradication Phase" style="triangle;whiteSpace=wrap;html=1;rounded=1;labelBackgroundColor=none;labelBorderColor=none;strokeColor=none;fontColor=#FFFFFF;fillColor=#D3455B;align=left;" vertex="1" parent="1">
          <mxGeometry x="111" y="200" width="90" height="120" as="geometry" />
        </mxCell>
        <mxCell id="0t48tQoUNAOdHy4xZGus-17" value="4.3 Revoke Abused Certificates" style="rounded=1;whiteSpace=wrap;html=1;strokeColor=none;fillColor=#D3455B;labelBackgroundColor=none;labelBorderColor=none;fontColor=#FFFFFF;" vertex="1" parent="1">
          <mxGeometry x="437" y="335" width="120" height="60" as="geometry" />
        </mxCell>
        <mxCell id="0t48tQoUNAOdHy4xZGus-18" value="" style="edgeStyle=orthogonalEdgeStyle;rounded=1;orthogonalLoop=1;jettySize=auto;html=1;strokeColor=#999999;strokeWidth=2;endArrow=block;endFill=1;fontColor=#FFFFFF;startArrow=none;startFill=0;sourcePerimeterSpacing=2;targetPerimeterSpacing=2;" edge="1" parent="1" source="0t48tQoUNAOdHy4xZGus-19" target="0t48tQoUNAOdHy4xZGus-7">
          <mxGeometry relative="1" as="geometry" />
        </mxCell>
        <mxCell id="0t48tQoUNAOdHy4xZGus-19" value="4.5 Improve Defences" style="rounded=1;whiteSpace=wrap;html=1;strokeColor=none;fillColor=#D3455B;labelBackgroundColor=none;labelBorderColor=none;fontColor=#FFFFFF;" vertex="1" parent="1">
          <mxGeometry x="267" y="560" width="120" height="60" as="geometry" />
        </mxCell>
        <mxCell id="0t48tQoUNAOdHy4xZGus-20" value="" style="endArrow=none;html=1;rounded=1;strokeColor=#999999;fontColor=#FFFFFF;strokeWidth=2;startArrow=none;startFill=0;endFill=0;sourcePerimeterSpacing=2;targetPerimeterSpacing=2;edgeStyle=orthogonalEdgeStyle;exitX=0.499;exitY=1.025;exitDx=0;exitDy=0;exitPerimeter=0;" edge="1" parent="1" source="0t48tQoUNAOdHy4xZGus-17">
          <mxGeometry width="50" height="50" relative="1" as="geometry">
            <mxPoint x="497" y="400" as="sourcePoint" />
            <mxPoint x="327" y="440" as="targetPoint" />
            <Array as="points">
              <mxPoint x="497" y="420" />
              <mxPoint x="327" y="420" />
            </Array>
          </mxGeometry>
        </mxCell>
        <mxCell id="0t48tQoUNAOdHy4xZGus-21" value="" style="edgeStyle=orthogonalEdgeStyle;rounded=1;orthogonalLoop=1;jettySize=auto;html=1;strokeColor=#999999;strokeWidth=2;fontSize=11;endArrow=block;endFill=1;fontColor=#FFFFFF;startArrow=none;startFill=0;sourcePerimeterSpacing=2;targetPerimeterSpacing=2;" edge="1" parent="1" source="0t48tQoUNAOdHy4xZGus-22" target="0t48tQoUNAOdHy4xZGus-24">
          <mxGeometry relative="1" as="geometry" />
        </mxCell>
        <mxCell id="0t48tQoUNAOdHy4xZGus-22" value="4.7 Clean Affected Functional Assets" style="rounded=1;whiteSpace=wrap;html=1;strokeColor=none;fillColor=#D3455B;labelBackgroundColor=none;labelBorderColor=none;fontColor=#FFFFFF;" vertex="1" parent="1">
          <mxGeometry x="437" y="670" width="120" height="60" as="geometry" />
        </mxCell>
        <mxCell id="0t48tQoUNAOdHy4xZGus-23" value="4.8 Remove Unwanted Software and/or Malware and/or Restore Clean Configuration" style="rounded=1;whiteSpace=wrap;html=1;strokeColor=none;fillColor=#D3455B;labelBackgroundColor=none;labelBorderColor=none;fontColor=#FFFFFF;fontSize=11;" vertex="1" parent="1">
          <mxGeometry x="597" y="670" width="120" height="60" as="geometry" />
        </mxCell>
        <mxCell id="0t48tQoUNAOdHy4xZGus-24" value="4.9 Revoke Configuration Changes" style="rounded=1;whiteSpace=wrap;html=1;strokeColor=none;fillColor=#D3455B;labelBackgroundColor=none;labelBorderColor=none;fontColor=#FFFFFF;" vertex="1" parent="1">
          <mxGeometry x="437" y="779" width="120" height="60" as="geometry" />
        </mxCell>
        <mxCell id="0t48tQoUNAOdHy4xZGus-25" value="Yes" style="text;html=1;strokeColor=none;fillColor=none;align=center;verticalAlign=middle;whiteSpace=wrap;rounded=0;labelBackgroundColor=none;labelBorderColor=none;fontColor=#000000;fontSize=8;" vertex="1" parent="1">
          <mxGeometry x="467" y="640" width="60" height="10" as="geometry" />
        </mxCell>
        <mxCell id="0t48tQoUNAOdHy4xZGus-26" value="" style="endArrow=none;html=1;rounded=0;strokeColor=#999999;strokeWidth=2;fontSize=11;entryX=0.5;entryY=1;entryDx=0;entryDy=0;exitX=0.5;exitY=0;exitDx=0;exitDy=0;" edge="1" parent="1" source="0t48tQoUNAOdHy4xZGus-25" target="0t48tQoUNAOdHy4xZGus-7">
          <mxGeometry width="50" height="50" relative="1" as="geometry">
            <mxPoint x="467" y="680" as="sourcePoint" />
            <mxPoint x="517" y="630" as="targetPoint" />
          </mxGeometry>
        </mxCell>
      </root>
    </mxGraphModel>
  </diagram>
  <diagram id="BZ76s3DIlSOtGJiAdmI3" name="Figure 6 Recovery">
    <mxGraphModel dx="966" dy="1292" grid="1" gridSize="10" guides="1" tooltips="1" connect="1" arrows="1" fold="1" page="1" pageScale="1" pageWidth="827" pageHeight="1169" math="0" shadow="0">
      <root>
        <mxCell id="0" />
        <mxCell id="1" parent="0" />
        <mxCell id="gkCbSkksFkzpv4hZqNeL-1" value="" style="edgeStyle=orthogonalEdgeStyle;orthogonalLoop=1;jettySize=auto;html=1;strokeColor=#999999;strokeWidth=2;fontColor=#FFFFFF;startArrow=none;startFill=0;endArrow=block;endFill=1;sourcePerimeterSpacing=2;targetPerimeterSpacing=2;" edge="1" parent="1">
          <mxGeometry relative="1" as="geometry">
            <mxPoint x="344" y="420" as="targetPoint" />
            <mxPoint x="282" y="420" as="sourcePoint" />
          </mxGeometry>
        </mxCell>
        <mxCell id="gkCbSkksFkzpv4hZqNeL-2" value="" style="edgeStyle=orthogonalEdgeStyle;rounded=1;orthogonalLoop=1;jettySize=auto;html=1;endArrow=block;strokeColor=#999999;fontColor=#FFFFFF;strokeWidth=2;startArrow=none;startFill=0;endFill=1;sourcePerimeterSpacing=2;targetPerimeterSpacing=2;" edge="1" parent="1" source="gkCbSkksFkzpv4hZqNeL-3">
          <mxGeometry relative="1" as="geometry">
            <mxPoint x="406" y="493" as="targetPoint" />
          </mxGeometry>
        </mxCell>
        <mxCell id="gkCbSkksFkzpv4hZqNeL-3" value="5.1 Verify Backups" style="rounded=1;whiteSpace=wrap;html=1;strokeColor=none;fillColor=#730FC3;labelBackgroundColor=none;labelBorderColor=none;fontColor=#FFFFFF;" vertex="1" parent="1">
          <mxGeometry x="346" y="390" width="120" height="60" as="geometry" />
        </mxCell>
        <mxCell id="gkCbSkksFkzpv4hZqNeL-4" value="" style="edgeStyle=orthogonalEdgeStyle;rounded=1;orthogonalLoop=1;jettySize=auto;html=1;endArrow=block;strokeColor=#999999;fontColor=#FFFFFF;strokeWidth=2;startArrow=none;startFill=0;endFill=1;targetPerimeterSpacing=2;exitX=0.5;exitY=1;exitDx=0;exitDy=0;" edge="1" parent="1" source="gkCbSkksFkzpv4hZqNeL-19" target="gkCbSkksFkzpv4hZqNeL-7">
          <mxGeometry relative="1" as="geometry">
            <mxPoint x="406" y="557" as="sourcePoint" />
          </mxGeometry>
        </mxCell>
        <mxCell id="gkCbSkksFkzpv4hZqNeL-5" value="6.0 Start &lt;br&gt;Post Incident Activities &lt;br&gt;Phase" style="triangle;whiteSpace=wrap;html=1;rounded=1;labelBackgroundColor=none;labelBorderColor=none;strokeColor=none;fontColor=#FFFFFF;fillColor=#6558F5;align=left;" vertex="1" parent="1">
          <mxGeometry x="536" y="690" width="90" height="120" as="geometry" />
        </mxCell>
        <mxCell id="gkCbSkksFkzpv4hZqNeL-6" value="" style="edgeStyle=orthogonalEdgeStyle;rounded=1;orthogonalLoop=1;jettySize=auto;html=1;strokeColor=#999999;strokeWidth=2;endArrow=block;endFill=1;fontColor=#FFFFFF;startArrow=none;startFill=0;sourcePerimeterSpacing=2;targetPerimeterSpacing=2;" edge="1" parent="1" source="gkCbSkksFkzpv4hZqNeL-7" target="gkCbSkksFkzpv4hZqNeL-12">
          <mxGeometry relative="1" as="geometry" />
        </mxCell>
        <mxCell id="gkCbSkksFkzpv4hZqNeL-7" value="5.5 Restore (Partial) Backups" style="rounded=1;whiteSpace=wrap;html=1;strokeColor=none;fillColor=#730FC3;labelBackgroundColor=none;labelBorderColor=none;fontColor=#FFFFFF;" vertex="1" parent="1">
          <mxGeometry x="346" y="610" width="120" height="60" as="geometry" />
        </mxCell>
        <mxCell id="gkCbSkksFkzpv4hZqNeL-8" value="" style="endArrow=block;html=1;rounded=1;entryX=0.499;entryY=-0.016;entryDx=0;entryDy=0;strokeColor=#999999;fontColor=#FFFFFF;strokeWidth=2;startArrow=none;startFill=0;endFill=1;sourcePerimeterSpacing=2;targetPerimeterSpacing=2;edgeStyle=orthogonalEdgeStyle;entryPerimeter=0;exitX=1.009;exitY=0.493;exitDx=0;exitDy=0;exitPerimeter=0;" edge="1" parent="1" source="gkCbSkksFkzpv4hZqNeL-3" target="gkCbSkksFkzpv4hZqNeL-10">
          <mxGeometry width="50" height="50" relative="1" as="geometry">
            <mxPoint x="466" y="420" as="sourcePoint" />
            <mxPoint x="406" y="849" as="targetPoint" />
            <Array as="points">
              <mxPoint x="576" y="420" />
            </Array>
          </mxGeometry>
        </mxCell>
        <mxCell id="gkCbSkksFkzpv4hZqNeL-9" value="" style="edgeStyle=orthogonalEdgeStyle;rounded=1;orthogonalLoop=1;jettySize=auto;html=1;strokeColor=#999999;strokeWidth=2;fontSize=11;endArrow=block;endFill=1;fontColor=#FFFFFF;startArrow=none;startFill=0;sourcePerimeterSpacing=2;targetPerimeterSpacing=2;" edge="1" parent="1" source="gkCbSkksFkzpv4hZqNeL-10" target="gkCbSkksFkzpv4hZqNeL-17">
          <mxGeometry relative="1" as="geometry" />
        </mxCell>
        <mxCell id="gkCbSkksFkzpv4hZqNeL-10" value="5.3 Rebuild Functional Assets" style="rounded=1;whiteSpace=wrap;html=1;strokeColor=none;fillColor=#730FC3;labelBackgroundColor=none;labelBorderColor=none;fontColor=#FFFFFF;" vertex="1" parent="1">
          <mxGeometry x="516" y="505" width="120" height="60" as="geometry" />
        </mxCell>
        <mxCell id="gkCbSkksFkzpv4hZqNeL-11" value="" style="edgeStyle=orthogonalEdgeStyle;rounded=1;orthogonalLoop=1;jettySize=auto;html=1;strokeColor=#999999;strokeWidth=2;endArrow=block;endFill=1;fontColor=#FFFFFF;startArrow=none;startFill=0;sourcePerimeterSpacing=2;targetPerimeterSpacing=2;entryX=-0.011;entryY=0.504;entryDx=0;entryDy=0;entryPerimeter=0;" edge="1" parent="1" source="gkCbSkksFkzpv4hZqNeL-12" target="gkCbSkksFkzpv4hZqNeL-5">
          <mxGeometry relative="1" as="geometry">
            <mxPoint x="514" y="750" as="targetPoint" />
            <Array as="points">
              <mxPoint x="496" y="750" />
            </Array>
          </mxGeometry>
        </mxCell>
        <mxCell id="gkCbSkksFkzpv4hZqNeL-12" value="5.6 Verify/Apply Downtime Generated Data" style="rounded=1;whiteSpace=wrap;html=1;strokeColor=none;fillColor=#730FC3;labelBackgroundColor=none;labelBorderColor=none;fontColor=#FFFFFF;" vertex="1" parent="1">
          <mxGeometry x="346" y="720" width="120" height="60" as="geometry" />
        </mxCell>
        <mxCell id="gkCbSkksFkzpv4hZqNeL-13" value="5.0 Start Recovery Phase" style="triangle;whiteSpace=wrap;html=1;rounded=1;labelBackgroundColor=none;labelBorderColor=none;strokeColor=none;fontColor=#FFFFFF;fillColor=#730FC3;align=left;" vertex="1" parent="1">
          <mxGeometry x="190" y="360" width="90" height="120" as="geometry" />
        </mxCell>
        <mxCell id="gkCbSkksFkzpv4hZqNeL-14" value="" style="edgeStyle=orthogonalEdgeStyle;rounded=1;orthogonalLoop=1;jettySize=auto;html=1;strokeColor=#999999;strokeWidth=2;fontSize=11;endArrow=block;endFill=1;fontColor=#FFFFFF;startArrow=none;startFill=0;sourcePerimeterSpacing=2;targetPerimeterSpacing=2;" edge="1" parent="1" source="gkCbSkksFkzpv4hZqNeL-15" target="gkCbSkksFkzpv4hZqNeL-10">
          <mxGeometry relative="1" as="geometry" />
        </mxCell>
        <mxCell id="gkCbSkksFkzpv4hZqNeL-15" value="5.2 &lt;br&gt;Were Functional Assets &lt;br&gt;Cleaned?" style="rhombus;whiteSpace=wrap;html=1;rounded=1;labelBackgroundColor=none;labelBorderColor=none;strokeColor=none;fontColor=#FFFFFF;fillColor=#730FC3;" vertex="1" parent="1">
          <mxGeometry x="346" y="495" width="120" height="80" as="geometry" />
        </mxCell>
        <mxCell id="gkCbSkksFkzpv4hZqNeL-16" value="" style="edgeStyle=orthogonalEdgeStyle;rounded=1;orthogonalLoop=1;jettySize=auto;html=1;strokeColor=#999999;strokeWidth=2;fontSize=11;endArrow=block;endFill=1;fontColor=#FFFFFF;startArrow=none;startFill=0;sourcePerimeterSpacing=2;targetPerimeterSpacing=2;" edge="1" parent="1" source="gkCbSkksFkzpv4hZqNeL-17" target="gkCbSkksFkzpv4hZqNeL-7">
          <mxGeometry relative="1" as="geometry" />
        </mxCell>
        <mxCell id="gkCbSkksFkzpv4hZqNeL-17" value="5.4 Validate Rebuilt Functional Assets" style="rounded=1;whiteSpace=wrap;html=1;strokeColor=none;fillColor=#730FC3;labelBackgroundColor=none;labelBorderColor=none;fontColor=#FFFFFF;" vertex="1" parent="1">
          <mxGeometry x="516" y="610" width="120" height="60" as="geometry" />
        </mxCell>
        <mxCell id="gkCbSkksFkzpv4hZqNeL-18" value="Yes" style="text;html=1;strokeColor=none;fillColor=none;align=center;verticalAlign=middle;whiteSpace=wrap;rounded=0;labelBackgroundColor=none;labelBorderColor=none;fontColor=#000000;fontSize=8;" vertex="1" parent="1">
          <mxGeometry x="456" y="524" width="60" height="10" as="geometry" />
        </mxCell>
        <mxCell id="gkCbSkksFkzpv4hZqNeL-19" value="No" style="text;html=1;strokeColor=none;fillColor=none;align=center;verticalAlign=middle;whiteSpace=wrap;rounded=0;labelBackgroundColor=none;labelBorderColor=none;fontColor=#000000;fontSize=8;" vertex="1" parent="1">
          <mxGeometry x="376" y="580" width="60" height="10" as="geometry" />
        </mxCell>
        <mxCell id="gkCbSkksFkzpv4hZqNeL-20" value="" style="endArrow=none;html=1;rounded=0;strokeColor=#999999;strokeWidth=2;fontSize=8;entryX=0.5;entryY=1;entryDx=0;entryDy=0;exitX=0.5;exitY=0;exitDx=0;exitDy=0;" edge="1" parent="1" source="gkCbSkksFkzpv4hZqNeL-19" target="gkCbSkksFkzpv4hZqNeL-15">
          <mxGeometry width="50" height="50" relative="1" as="geometry">
            <mxPoint x="406" y="710" as="sourcePoint" />
            <mxPoint x="456" y="660" as="targetPoint" />
          </mxGeometry>
        </mxCell>
      </root>
    </mxGraphModel>
  </diagram>
  <diagram id="gqDuEk4LFHcvixg4Jt9h" name="Figure 7 Post Incident Activities">
    <mxGraphModel dx="966" dy="1292" grid="1" gridSize="10" guides="1" tooltips="1" connect="1" arrows="1" fold="1" page="1" pageScale="1" pageWidth="827" pageHeight="1169" math="0" shadow="0">
      <root>
        <mxCell id="0" />
        <mxCell id="1" parent="0" />
        <mxCell id="1oVCQpo5KyLPKF3a51Eh-1" value="" style="edgeStyle=orthogonalEdgeStyle;orthogonalLoop=1;jettySize=auto;html=1;strokeColor=#999999;strokeWidth=2;fontColor=#FFFFFF;startArrow=none;startFill=0;endArrow=block;endFill=1;sourcePerimeterSpacing=2;targetPerimeterSpacing=2;" edge="1" parent="1">
          <mxGeometry relative="1" as="geometry">
            <mxPoint x="344" y="420" as="targetPoint" />
            <mxPoint x="282" y="420" as="sourcePoint" />
          </mxGeometry>
        </mxCell>
        <mxCell id="1oVCQpo5KyLPKF3a51Eh-2" value="" style="edgeStyle=orthogonalEdgeStyle;rounded=1;orthogonalLoop=1;jettySize=auto;html=1;strokeColor=#999999;strokeWidth=2;fontSize=11;endArrow=block;endFill=1;fontColor=#FFFFFF;startArrow=none;startFill=0;sourcePerimeterSpacing=2;targetPerimeterSpacing=2;" edge="1" parent="1" source="1oVCQpo5KyLPKF3a51Eh-3" target="1oVCQpo5KyLPKF3a51Eh-7">
          <mxGeometry relative="1" as="geometry" />
        </mxCell>
        <mxCell id="1oVCQpo5KyLPKF3a51Eh-3" value="6.1 Review Incident Tracking and Logging" style="rounded=1;whiteSpace=wrap;html=1;strokeColor=none;fillColor=#6558F5;labelBackgroundColor=none;labelBorderColor=none;fontColor=#FFFFFF;align=center;" vertex="1" parent="1">
          <mxGeometry x="346" y="390" width="120" height="60" as="geometry" />
        </mxCell>
        <mxCell id="1oVCQpo5KyLPKF3a51Eh-4" value="" style="edgeStyle=orthogonalEdgeStyle;rounded=1;orthogonalLoop=1;jettySize=auto;html=1;strokeColor=#999999;strokeWidth=2;endArrow=block;endFill=1;fontColor=#FFFFFF;startArrow=none;startFill=0;sourcePerimeterSpacing=2;targetPerimeterSpacing=2;" edge="1" parent="1" source="1oVCQpo5KyLPKF3a51Eh-5" target="1oVCQpo5KyLPKF3a51Eh-10">
          <mxGeometry relative="1" as="geometry" />
        </mxCell>
        <mxCell id="1oVCQpo5KyLPKF3a51Eh-5" value="6.3 Share IOCs and Experiences" style="rounded=1;whiteSpace=wrap;html=1;strokeColor=none;fillColor=#6558F5;labelBackgroundColor=none;labelBorderColor=none;fontColor=#FFFFFF;" vertex="1" parent="1">
          <mxGeometry x="346" y="610" width="120" height="60" as="geometry" />
        </mxCell>
        <mxCell id="1oVCQpo5KyLPKF3a51Eh-6" value="" style="edgeStyle=orthogonalEdgeStyle;rounded=1;orthogonalLoop=1;jettySize=auto;html=1;strokeColor=#999999;strokeWidth=2;fontSize=11;endArrow=block;endFill=1;fontColor=#FFFFFF;startArrow=none;startFill=0;sourcePerimeterSpacing=2;targetPerimeterSpacing=2;" edge="1" parent="1" source="1oVCQpo5KyLPKF3a51Eh-7" target="1oVCQpo5KyLPKF3a51Eh-5">
          <mxGeometry relative="1" as="geometry" />
        </mxCell>
        <mxCell id="1oVCQpo5KyLPKF3a51Eh-7" value="6.2 Hot Wash-Up" style="rounded=1;whiteSpace=wrap;html=1;strokeColor=none;fillColor=#6558F5;labelBackgroundColor=none;labelBorderColor=none;fontColor=#FFFFFF;" vertex="1" parent="1">
          <mxGeometry x="346" y="500" width="120" height="60" as="geometry" />
        </mxCell>
        <mxCell id="1oVCQpo5KyLPKF3a51Eh-8" value="" style="edgeStyle=orthogonalEdgeStyle;rounded=1;orthogonalLoop=1;jettySize=auto;html=1;strokeColor=#999999;strokeWidth=2;fontSize=11;endArrow=block;endFill=1;fontColor=#FFFFFF;startArrow=none;startFill=0;sourcePerimeterSpacing=2;targetPerimeterSpacing=2;" edge="1" parent="1" source="1oVCQpo5KyLPKF3a51Eh-10" target="1oVCQpo5KyLPKF3a51Eh-12">
          <mxGeometry relative="1" as="geometry" />
        </mxCell>
        <mxCell id="1oVCQpo5KyLPKF3a51Eh-9" value="" style="edgeStyle=orthogonalEdgeStyle;rounded=1;orthogonalLoop=1;jettySize=auto;html=1;strokeColor=#999999;strokeWidth=2;fontSize=11;endArrow=block;endFill=1;fontColor=#FFFFFF;startArrow=none;startFill=0;sourcePerimeterSpacing=2;targetPerimeterSpacing=2;" edge="1" parent="1" source="1oVCQpo5KyLPKF3a51Eh-10" target="1oVCQpo5KyLPKF3a51Eh-14">
          <mxGeometry relative="1" as="geometry" />
        </mxCell>
        <mxCell id="1oVCQpo5KyLPKF3a51Eh-10" value="6.4 Report" style="rounded=1;whiteSpace=wrap;html=1;strokeColor=none;fillColor=#6558F5;labelBackgroundColor=none;labelBorderColor=none;fontColor=#FFFFFF;" vertex="1" parent="1">
          <mxGeometry x="346" y="720" width="120" height="60" as="geometry" />
        </mxCell>
        <mxCell id="1oVCQpo5KyLPKF3a51Eh-11" value="6.0 Start &lt;br&gt;Post Incident Activities &lt;br&gt;Phase" style="triangle;whiteSpace=wrap;html=1;rounded=1;labelBackgroundColor=none;labelBorderColor=none;strokeColor=none;fontColor=#FFFFFF;fillColor=#6558F5;align=left;" vertex="1" parent="1">
          <mxGeometry x="190" y="360" width="90" height="120" as="geometry" />
        </mxCell>
        <mxCell id="1oVCQpo5KyLPKF3a51Eh-12" value="6.5&lt;br&gt;&amp;nbsp;Invoke Change Management" style="shape=parallelogram;perimeter=parallelogramPerimeter;whiteSpace=wrap;html=1;fixedSize=1;fontSize=12;fillColor=#6558F5;strokeColor=none;fontColor=#FFFFFF;rounded=1;labelBackgroundColor=none;labelBorderColor=none;" vertex="1" parent="1">
          <mxGeometry x="510" y="720" width="120" height="60" as="geometry" />
        </mxCell>
        <mxCell id="1oVCQpo5KyLPKF3a51Eh-13" value="" style="edgeStyle=orthogonalEdgeStyle;rounded=1;orthogonalLoop=1;jettySize=auto;html=1;strokeColor=#999999;strokeWidth=2;fontSize=11;endArrow=block;endFill=1;fontColor=#FFFFFF;startArrow=none;startFill=0;sourcePerimeterSpacing=2;targetPerimeterSpacing=2;dashed=1;" edge="1" parent="1" source="1oVCQpo5KyLPKF3a51Eh-14" target="1oVCQpo5KyLPKF3a51Eh-15">
          <mxGeometry relative="1" as="geometry" />
        </mxCell>
        <mxCell id="1oVCQpo5KyLPKF3a51Eh-14" value="6.6 Incident Closure" style="shape=hexagon;perimeter=hexagonPerimeter2;whiteSpace=wrap;html=1;fixedSize=1;fontSize=12;fillColor=#6558F5;strokeColor=none;fontColor=#FFFFFF;rounded=1;labelBackgroundColor=none;labelBorderColor=none;" vertex="1" parent="1">
          <mxGeometry x="346" y="830" width="120" height="60" as="geometry" />
        </mxCell>
        <mxCell id="1oVCQpo5KyLPKF3a51Eh-15" value="1.0 Preparation Phase" style="shape=parallelogram;perimeter=parallelogramPerimeter;whiteSpace=wrap;html=1;fixedSize=1;fontSize=12;fillColor=#1AAE9F;strokeColor=none;fontColor=#FFFFFF;rounded=1;labelBackgroundColor=none;labelBorderColor=none;" vertex="1" parent="1">
          <mxGeometry x="510" y="830" width="120" height="60" as="geometry" />
        </mxCell>
      </root>
    </mxGraphModel>
  </diagram>
</mxfile>
